<svg width="66" height="46" viewBox="0 0 66 46" fill="none" xmlns="http://www.w3.org/2000/svg">
<rect width="66" height="46" rx="4" fill="#FFFBF4"/>
<g filter="url(#filter0_d_8033_14353)">
<rect x="10" y="16" width="47" height="14" rx="2.4" fill="white"/>
<rect x="10.3" y="16.3" width="46.4" height="13.4" rx="2.1" stroke="#FFB116" stroke-width="0.6"/>
</g>
<g clip-path="url(#clip0_8033_14353)">
<path d="M16.8764 23.8173C17.5052 23.8173 18.0197 23.2923 18.0197 22.6507V21.2507C18.0197 20.609 17.5052 20.084 16.8764 20.084C16.2476 20.084 15.7331 20.609 15.7331 21.2507V22.6507C15.7331 23.2923 16.2476 23.8173 16.8764 23.8173ZM18.9099 22.9744C18.9146 22.9442 18.9134 22.9133 18.9063 22.8835C18.8993 22.8538 18.8865 22.8258 18.8688 22.801C18.8511 22.7763 18.8287 22.7554 18.8031 22.7395C18.7774 22.7235 18.7489 22.7129 18.7191 22.7082C18.6592 22.699 18.5981 22.7143 18.5493 22.7508C18.5004 22.7872 18.4677 22.8419 18.4584 22.9029C18.3383 23.6904 17.6589 24.284 16.8764 24.284C16.094 24.284 15.4138 23.6898 15.2944 22.9023C15.2901 22.8719 15.2798 22.8427 15.2643 22.8164C15.2488 22.79 15.2283 22.7671 15.204 22.7489C15.1797 22.7306 15.1521 22.7175 15.1228 22.7102C15.0935 22.7028 15.0631 22.7015 15.0333 22.7062C15.0035 22.7109 14.9749 22.7216 14.9491 22.7376C14.9234 22.7536 14.901 22.7747 14.8833 22.7995C14.8656 22.8244 14.8529 22.8526 14.846 22.8825C14.839 22.9124 14.838 22.9433 14.8429 22.9736C14.9872 23.9252 15.7289 24.6346 16.6477 24.7368V25.4507H15.9617C15.8353 25.4507 15.7332 25.555 15.7332 25.684C15.7332 25.8129 15.8353 25.9173 15.9617 25.9173H17.7911C17.9175 25.9173 18.0196 25.8129 18.0196 25.684C18.0196 25.555 17.9175 25.4507 17.7911 25.4507H17.1051V24.7368C18.0232 24.6348 18.7656 23.926 18.9099 22.9744Z" fill="#FFB116"/>
</g>
<path d="M40.0029 25.2374C39.9266 25.4041 39.6214 25.3374 39.6214 25.1707V20.8018C39.6595 20.6017 40.0029 20.635 40.0029 20.8351V25.1707V25.2374ZM39.2399 24.2369C39.1636 24.4036 38.8584 24.3369 38.8584 24.1702V21.8356C38.8584 21.6689 39.1255 21.6022 39.2018 21.7356C39.2399 21.7689 39.2399 21.8023 39.2399 21.8356V24.1702V24.2369ZM38.477 23.5699C38.4007 23.7366 38.0955 23.6699 38.0955 23.5032C38.0955 23.4365 38.0573 22.4359 38.1336 22.4026C38.2481 22.2692 38.477 22.3359 38.477 22.5026V23.5032V23.5699ZM42.2917 23.9034C42.2154 24.0701 41.9103 24.0034 41.9103 23.8367V22.1691C41.9103 21.9357 42.2917 21.9357 42.2917 22.1691V23.8367V23.9034ZM43.0547 23.5699C42.9784 23.7366 42.6732 23.6699 42.6732 23.5032C42.6732 23.4365 42.6351 22.4359 42.7114 22.4026C42.8258 22.2692 43.0547 22.3359 43.0547 22.5026V23.5032V23.5699ZM41.5288 23.2364C41.4525 23.3698 41.1854 23.3698 41.1473 23.203V22.7694C41.2236 22.6027 41.5288 22.6694 41.5288 22.8361V23.2364ZM43.8176 23.203C43.7795 23.3698 43.5125 23.3698 43.4362 23.2364C43.398 23.203 43.4362 22.8695 43.4362 22.8361V22.7694C43.5125 22.636 43.7795 22.636 43.8176 22.8028V23.203ZM40.7658 24.2369C40.6895 24.4036 40.3843 24.3369 40.3843 24.1702V21.8356C40.3843 21.6689 40.6514 21.6022 40.7277 21.7356C40.7658 21.7689 40.7658 21.8023 40.7658 21.8356V24.1702V24.2369Z" fill="#F8E2A5"/>
<path d="M46.4992 25.2374C46.4153 25.4041 46.0796 25.3374 46.0796 25.1707V20.8018C46.1216 20.6017 46.4992 20.635 46.4992 20.8351V25.1707V25.2374ZM45.66 24.2369C45.5761 24.4036 45.2404 24.3369 45.2404 24.1702V21.8356C45.2404 21.6689 45.5341 21.6022 45.618 21.7356C45.66 21.7689 45.66 21.8023 45.66 21.8356V24.1702V24.2369ZM44.8207 23.5699C44.7368 23.7366 44.4011 23.6699 44.4011 23.5032C44.4011 23.4365 44.3592 22.4359 44.4431 22.4026C44.569 22.2692 44.8207 22.3359 44.8207 22.5026V23.5032V23.5699ZM49.017 23.9034C48.9331 24.0701 48.5974 24.0034 48.5974 23.8367V22.1691C48.5974 21.9357 49.017 21.9357 49.017 22.1691V23.8367V23.9034ZM49.8563 23.5699C49.7723 23.7366 49.4366 23.6699 49.4366 23.5032C49.4366 23.4365 49.3947 22.4359 49.4786 22.4026C49.6045 22.2692 49.8563 22.3359 49.8563 22.5026V23.5032V23.5699ZM48.1777 23.2364C48.0938 23.3698 47.8001 23.3698 47.7581 23.203V22.7694C47.842 22.6027 48.1777 22.6694 48.1777 22.8361V23.2364ZM50.6955 23.203C50.6535 23.3698 50.3598 23.3698 50.2759 23.2364C50.2339 23.203 50.2759 22.8695 50.2759 22.8361V22.7694C50.3598 22.636 50.6535 22.636 50.6955 22.8028V23.203ZM47.3385 24.2369C47.2546 24.4036 46.9189 24.3369 46.9189 24.1702V21.8356C46.9189 21.6689 47.2126 21.6022 47.2965 21.7356C47.3385 21.7689 47.3385 21.8023 47.3385 21.8356V24.1702V24.2369Z" fill="#F8E2A5"/>
<path d="M33.3157 25.2374C33.2317 25.4041 32.896 25.3374 32.896 25.1707V20.8018C32.938 20.6017 33.3157 20.635 33.3157 20.8351V25.1707V25.2374ZM32.4764 24.2369C32.3925 24.4036 32.0568 24.3369 32.0568 24.1702V21.8356C32.0568 21.6689 32.3505 21.6022 32.4344 21.7356C32.4764 21.7689 32.4764 21.8023 32.4764 21.8356V24.1702V24.2369ZM31.6371 23.5699C31.5532 23.7366 31.2175 23.6699 31.2175 23.5032C31.2175 23.4365 31.1756 22.4359 31.2595 22.4026C31.3854 22.2692 31.6371 22.3359 31.6371 22.5026V23.5032V23.5699ZM35.8334 23.9034C35.7495 24.0701 35.4138 24.0034 35.4138 23.8367V22.1691C35.4138 21.9357 35.8334 21.9357 35.8334 22.1691V23.8367V23.9034ZM36.6727 23.5699C36.5887 23.7366 36.253 23.6699 36.253 23.5032C36.253 23.4365 36.2111 22.4359 36.295 22.4026C36.4209 22.2692 36.6727 22.3359 36.6727 22.5026V23.5032V23.5699ZM34.9942 23.2364C34.9102 23.3698 34.6165 23.3698 34.5745 23.203V22.7694C34.6585 22.6027 34.9942 22.6694 34.9942 22.8361V23.2364ZM37.5119 23.203C37.4699 23.3698 37.1762 23.3698 37.0923 23.2364C37.0503 23.203 37.0923 22.8695 37.0923 22.8361V22.7694C37.1762 22.636 37.4699 22.636 37.5119 22.8028V23.203ZM34.1549 24.2369C34.071 24.4036 33.7353 24.3369 33.7353 24.1702V21.8356C33.7353 21.6689 34.029 21.6022 34.1129 21.7356C34.1549 21.7689 34.1549 21.8023 34.1549 21.8356V24.1702V24.2369Z" fill="#FFB116"/>
<defs>
<filter id="filter0_d_8033_14353" x="8.77937" y="15.3606" width="49.4413" height="16.4413" filterUnits="userSpaceOnUse" color-interpolation-filters="sRGB">
<feFlood flood-opacity="0" result="BackgroundImageFix"/>
<feColorMatrix in="SourceAlpha" type="matrix" values="0 0 0 0 0 0 0 0 0 0 0 0 0 0 0 0 0 0 127 0" result="hardAlpha"/>
<feOffset dy="0.58125"/>
<feGaussianBlur stdDeviation="0.610313"/>
<feComposite in2="hardAlpha" operator="out"/>
<feColorMatrix type="matrix" values="0 0 0 0 0.838942 0 0 0 0 0.750578 0 0 0 0 0.356954 0 0 0 0.24 0"/>
<feBlend mode="normal" in2="BackgroundImageFix" result="effect1_dropShadow_8033_14353"/>
<feBlend mode="normal" in="SourceGraphic" in2="effect1_dropShadow_8033_14353" result="shape"/>
</filter>
<clipPath id="clip0_8033_14353">
<rect width="5.73171" height="5.83333" fill="white" transform="translate(14.0117 20.084)"/>
</clipPath>
</defs>
</svg>
