<svg width="66" height="46" viewBox="0 0 66 46" fill="none" xmlns="http://www.w3.org/2000/svg">
<rect width="66" height="46" rx="4" fill="#F4F2FF"/>
<g filter="url(#filter0_d_8033_14286)">
<path d="M16.6 12H50.4C51.83 12 53 12.792 53 13.76V32.24C53 33.208 51.83 34 50.4 34H16.6C15.17 34 14 33.208 14 32.24V13.76C14 12.792 15.17 12 16.6 12Z" fill="white"/>
</g>
<circle cx="33.5023" cy="28.5003" r="2.52963" fill="#6555FF"/>
<path d="M33.1049 29.2841V27.7155C33.1049 27.5667 33.0429 27.5078 32.8848 27.5078H32.4818C32.3237 27.5078 32.2617 27.5667 32.2617 27.7155V29.2841C32.2617 29.4329 32.3237 29.4918 32.4818 29.4918H32.8817C33.0429 29.4918 33.1049 29.4329 33.1049 29.2841Z" stroke="white" stroke-width="0.235669" stroke-linecap="round" stroke-linejoin="round"/>
<path d="M34.7425 29.2841V27.7155C34.7425 27.5667 34.6805 27.5078 34.5224 27.5078H34.1224C33.9643 27.5078 33.9023 27.5667 33.9023 27.7155V29.2841C33.9023 29.4329 33.9643 29.4918 34.1224 29.4918H34.5224C34.6805 29.4918 34.7425 29.4329 34.7425 29.2841Z" stroke="white" stroke-width="0.235669" stroke-linecap="round" stroke-linejoin="round"/>
<path d="M26.7706 28.3047H26.1377L25.9805 28.7783H26.4541C26.6278 28.7783 26.7706 28.919 26.7706 29.0948C26.7706 29.2685 26.6299 29.4112 26.4541 29.4112H25.9805" stroke="#6555FF" stroke-width="0.305156" stroke-linecap="round" stroke-linejoin="round"/>
<path d="M25.4431 29.4091V28.3047L25.1328 28.6501" stroke="#6555FF" stroke-width="0.305156" stroke-linecap="round" stroke-linejoin="round"/>
<path d="M25.543 26.9913L25.9525 26.4805" stroke="#6555FF" stroke-width="0.305156" stroke-linecap="round" stroke-linejoin="round"/>
<path d="M24.4853 27.6774C24.2559 27.9832 24.1133 28.3615 24.1133 28.7748C24.1133 29.7895 24.9358 30.6121 25.9506 30.6121C26.9653 30.6121 27.7879 29.7895 27.7879 28.7748C27.7879 27.76 26.9653 26.9375 25.9506 26.9375C25.81 26.9375 25.6736 26.9561 25.5414 26.9871" stroke="#6555FF" stroke-width="0.305156" stroke-linecap="round" stroke-linejoin="round"/>
<path d="M41.8643 28.3047H41.2314L41.0742 28.7783H41.5479C41.7216 28.7783 41.8643 28.919 41.8643 29.0948C41.8643 29.2685 41.7237 29.4112 41.5479 29.4112H41.0742" stroke="#6555FF" stroke-width="0.305156" stroke-linecap="round" stroke-linejoin="round"/>
<path d="M40.5368 29.4091V28.3047L40.2266 28.6501" stroke="#6555FF" stroke-width="0.305156" stroke-linecap="round" stroke-linejoin="round"/>
<path d="M41.4564 26.9913L41.0469 26.4805" stroke="#6555FF" stroke-width="0.305156" stroke-linecap="round" stroke-linejoin="round"/>
<path d="M42.5135 27.6793C42.7429 27.9852 42.8855 28.3634 42.8855 28.7767C42.8855 29.7915 42.063 30.614 41.0482 30.614C40.0335 30.614 39.2109 29.7915 39.2109 28.7767C39.2109 27.762 40.0335 26.9395 41.0482 26.9395C41.1888 26.9395 41.3252 26.9581 41.4574 26.9891" stroke="#6555FF" stroke-width="0.305156" stroke-linecap="round" stroke-linejoin="round"/>
<rect x="22.1758" y="22.3887" width="22.6452" height="0.916667" rx="0.458333" fill="#DEDBFF"/>
<rect x="22.1758" y="22.3887" width="11.8778" height="0.916667" rx="0.458333" fill="#6555FF"/>
<g filter="url(#filter1_d_8033_14286)">
<ellipse cx="34.5239" cy="22.7721" rx="1.02395" ry="0.994777" fill="white"/>
</g>
<path d="M22.4395 17.1934C22.6153 17.1934 22.7032 17.2697 22.7032 17.4225V18.1864C22.7032 18.3392 22.6153 18.4156 22.4395 18.4156C22.2637 18.4156 22.1758 18.3392 22.1758 18.1864V17.4225C22.1758 17.2697 22.2637 17.1934 22.4395 17.1934Z" fill="#DEDBFF"/>
<path d="M41.3965 16.7363C41.5723 16.7363 41.6603 16.8127 41.6603 16.9655V18.6461C41.6603 18.7988 41.5723 18.8752 41.3965 18.8752C41.2207 18.8752 41.1328 18.7988 41.1328 18.6461V16.9655C41.1328 16.8127 41.2207 16.7363 41.3965 16.7363Z" fill="#6555FF"/>
<path d="M23.4942 17.1934C23.67 17.1934 23.7579 17.2697 23.7579 17.4225V18.1864C23.7579 18.3392 23.67 18.4156 23.4942 18.4156C23.3184 18.4156 23.2305 18.3392 23.2305 18.1864V17.4225C23.2305 17.2697 23.3184 17.1934 23.4942 17.1934Z" fill="#DEDBFF"/>
<path d="M42.4512 17.1934C42.627 17.1934 42.7149 17.2697 42.7149 17.4225V18.1864C42.7149 18.3392 42.627 18.4156 42.4512 18.4156C42.2754 18.4156 42.1875 18.3392 42.1875 18.1864V17.4225C42.1875 17.2697 42.2754 17.1934 42.4512 17.1934Z" fill="#DEDBFF"/>
<path d="M24.545 17.1934C24.7208 17.1934 24.8087 17.2697 24.8087 17.4225V18.1864C24.8087 18.3392 24.7208 18.4156 24.545 18.4156C24.3692 18.4156 24.2812 18.3392 24.2812 18.1864V17.4225C24.2812 17.2697 24.3692 17.1934 24.545 17.1934Z" fill="#DEDBFF"/>
<path d="M25.5997 16.7363C25.7755 16.7363 25.8634 16.8127 25.8634 16.9655V18.7988C25.8634 18.9516 25.7755 19.028 25.5997 19.028C25.4238 19.028 25.3359 18.9516 25.3359 18.7988V16.9655C25.3359 16.8127 25.4238 16.7363 25.5997 16.7363Z" fill="#DEDBFF"/>
<path d="M38.2403 16.7363C38.4161 16.7363 38.504 16.8127 38.504 16.9655V18.7988C38.504 18.9516 38.4161 19.028 38.2403 19.028C38.0645 19.028 37.9766 18.9516 37.9766 18.7988V16.9655C37.9766 16.8127 38.0645 16.7363 38.2403 16.7363Z" fill="#6555FF"/>
<path d="M26.6543 16.2773C26.8302 16.2773 26.9181 16.3537 26.9181 16.5065V19.1037C26.9181 19.2565 26.8302 19.3329 26.6543 19.3329C26.4785 19.3329 26.3906 19.2565 26.3906 19.1037V16.5065C26.3906 16.3537 26.4785 16.2773 26.6543 16.2773Z" fill="#DEDBFF"/>
<path d="M39.2911 16.2773C39.4669 16.2773 39.5548 16.3537 39.5548 16.5065V19.1037C39.5548 19.2565 39.4669 19.3329 39.2911 19.3329C39.1153 19.3329 39.0273 19.2565 39.0273 19.1037V16.5065C39.0273 16.3537 39.1153 16.2773 39.2911 16.2773Z" fill="#DEDBFF"/>
<path d="M28.7598 16.2773C28.9356 16.2773 29.0235 16.3537 29.0235 16.5065V19.1037C29.0235 19.2565 28.9356 19.3329 28.7598 19.3329C28.584 19.3329 28.4961 19.2565 28.4961 19.1037V16.5065C28.4961 16.3537 28.584 16.2773 28.7598 16.2773Z" fill="#DEDBFF"/>
<path d="M29.8106 16.584C29.9864 16.584 30.0743 16.6604 30.0743 16.8132V18.7993C30.0743 18.952 29.9864 19.0284 29.8106 19.0284C29.6348 19.0284 29.5469 18.952 29.5469 18.7993V16.8132C29.5469 16.6604 29.6348 16.584 29.8106 16.584Z" fill="#6555FF"/>
<path d="M30.8653 17.043C31.0411 17.043 31.129 17.1194 31.129 17.2721V18.3416C31.129 18.4944 31.0411 18.5707 30.8653 18.5707C30.6895 18.5707 30.6016 18.4944 30.6016 18.3416V17.2721C30.6016 17.1194 30.6895 17.043 30.8653 17.043Z" fill="#DEDBFF"/>
<path d="M31.92 16.8887C32.0958 16.8887 32.1837 16.9651 32.1837 17.1178V18.4928C32.1837 18.6456 32.0958 18.722 31.92 18.722C31.7442 18.722 31.6562 18.6456 31.6562 18.4928V17.1178C31.6562 16.9651 31.7442 16.8887 31.92 16.8887Z" fill="#DEDBFF"/>
<path d="M32.9708 16.8887C33.1466 16.8887 33.2345 16.9651 33.2345 17.1178V18.6456C33.2345 18.7984 33.1466 18.8748 32.9708 18.8748C32.7949 18.8748 32.707 18.7984 32.707 18.6456V17.1178C32.707 16.9651 32.7949 16.8887 32.9708 16.8887Z" fill="#DEDBFF"/>
<path d="M34.0254 16.2773C34.2013 16.2773 34.2892 16.3537 34.2892 16.5065V19.1037C34.2892 19.2565 34.2013 19.3329 34.0254 19.3329C33.8496 19.3329 33.7617 19.2565 33.7617 19.1037V16.5065C33.7617 16.3537 33.8496 16.2773 34.0254 16.2773Z" fill="#6555FF"/>
<path d="M35.0801 16.7363C35.2559 16.7363 35.3438 16.8127 35.3438 16.9655V18.7988C35.3438 18.9516 35.2559 19.028 35.0801 19.028C34.9043 19.028 34.8164 18.9516 34.8164 18.7988V16.9655C34.8164 16.8127 34.9043 16.7363 35.0801 16.7363Z" fill="#DEDBFF"/>
<path d="M36.1309 17.3477C36.3067 17.3477 36.3946 17.424 36.3946 17.5768V18.0352C36.3946 18.1879 36.3067 18.2643 36.1309 18.2643C35.9551 18.2643 35.8672 18.1879 35.8672 18.0352V17.5768C35.8672 17.424 35.9551 17.3477 36.1309 17.3477Z" fill="#DEDBFF"/>
<path d="M43.5059 17.3477C43.6817 17.3477 43.7696 17.424 43.7696 17.5768V18.0352C43.7696 18.1879 43.6817 18.2643 43.5059 18.2643C43.3301 18.2643 43.2422 18.1879 43.2422 18.0352V17.5768C43.2422 17.424 43.3301 17.3477 43.5059 17.3477Z" fill="#DEDBFF"/>
<path d="M44.5567 17.3477C44.7325 17.3477 44.8204 17.424 44.8204 17.5768V18.0352C44.8204 18.1879 44.7325 18.2643 44.5567 18.2643C44.3809 18.2643 44.293 18.1879 44.293 18.0352V17.5768C44.293 17.424 44.3809 17.3477 44.5567 17.3477Z" fill="#DEDBFF"/>
<path d="M37.1856 17.043C37.3614 17.043 37.4493 17.1194 37.4493 17.2721V18.4944C37.4493 18.6471 37.3614 18.7235 37.1856 18.7235C37.0098 18.7235 36.9219 18.6471 36.9219 18.4944V17.2721C36.9219 17.1194 37.0098 17.043 37.1856 17.043Z" fill="#6555FF"/>
<path d="M27.7051 15.666C27.8809 15.666 27.9689 15.7424 27.9689 15.8952V19.7146C27.9689 19.8674 27.8809 19.9438 27.7051 19.9438C27.5293 19.9438 27.4414 19.8674 27.4414 19.7146V15.8952C27.4414 15.7424 27.5293 15.666 27.7051 15.666Z" fill="#6555FF"/>
<path d="M40.3458 15.666C40.5216 15.666 40.6095 15.7424 40.6095 15.8952V19.7146C40.6095 19.8674 40.5216 19.9438 40.3458 19.9438C40.1699 19.9438 40.082 19.8674 40.082 19.7146V15.8952C40.082 15.7424 40.1699 15.666 40.3458 15.666Z" fill="#DEDBFF"/>
<defs>
<filter id="filter0_d_8033_14286" x="12.2854" y="10.8049" width="42.4293" height="25.4293" filterUnits="userSpaceOnUse" color-interpolation-filters="sRGB">
<feFlood flood-opacity="0" result="BackgroundImageFix"/>
<feColorMatrix in="SourceAlpha" type="matrix" values="0 0 0 0 0 0 0 0 0 0 0 0 0 0 0 0 0 0 127 0" result="hardAlpha"/>
<feOffset dy="0.51959"/>
<feGaussianBlur stdDeviation="0.857324"/>
<feComposite in2="hardAlpha" operator="out"/>
<feColorMatrix type="matrix" values="0 0 0 0 0.118956 0 0 0 0 0.350962 0 0 0 0 0.333986 0 0 0 0.03 0"/>
<feBlend mode="normal" in2="BackgroundImageFix" result="effect1_dropShadow_8033_14286"/>
<feBlend mode="normal" in="SourceGraphic" in2="effect1_dropShadow_8033_14286" result="shape"/>
</filter>
<filter id="filter1_d_8033_14286" x="32.7443" y="21.0217" width="4.1627" height="4.10605" filterUnits="userSpaceOnUse" color-interpolation-filters="sRGB">
<feFlood flood-opacity="0" result="BackgroundImageFix"/>
<feColorMatrix in="SourceAlpha" type="matrix" values="0 0 0 0 0 0 0 0 0 0 0 0 0 0 0 0 0 0 127 0" result="hardAlpha"/>
<feOffset dx="0.30226" dy="0.30226"/>
<feGaussianBlur stdDeviation="0.528955"/>
<feComposite in2="hardAlpha" operator="out"/>
<feColorMatrix type="matrix" values="0 0 0 0 0 0 0 0 0 0 0 0 0 0 0 0 0 0 0.15 0"/>
<feBlend mode="normal" in2="BackgroundImageFix" result="effect1_dropShadow_8033_14286"/>
<feBlend mode="normal" in="SourceGraphic" in2="effect1_dropShadow_8033_14286" result="shape"/>
</filter>
</defs>
</svg>
