<svg width="66" height="46" viewBox="0 0 66 46" fill="none" xmlns="http://www.w3.org/2000/svg">
<rect width="66" height="46" rx="4" fill="#FFFBF4"/>
<g filter="url(#filter0_d_8033_14234)">
<rect x="17" y="16" width="32" height="13" rx="2.4" fill="#FFB116" shape-rendering="crispEdges"/>
<rect x="17.3" y="16.3" width="31.4" height="12.4" rx="2.1" stroke="#FFB116" stroke-width="0.6" shape-rendering="crispEdges"/>
<path d="M25.3204 24V20.448H26.4964C27.226 20.448 27.7828 20.6592 27.7828 21.3216C27.7828 21.648 27.6004 21.984 27.298 22.0896V22.1136C27.682 22.2048 27.9652 22.4736 27.9652 22.9536C27.9652 23.6688 27.37 24 26.5876 24H25.3204ZM26.0308 21.8928H26.4436C26.8948 21.8928 27.0916 21.7104 27.0916 21.4272C27.0916 21.1152 26.8804 20.9904 26.4532 20.9904H26.0308V21.8928ZM26.0308 23.4528H26.5252C27.01 23.4528 27.274 23.28 27.274 22.9104C27.274 22.5648 27.0148 22.4208 26.5252 22.4208H26.0308V23.4528ZM29.3268 24.0672C28.7508 24.0672 28.5012 23.664 28.5012 22.992V21.312H29.2068V22.9008C29.2068 23.3184 29.322 23.4624 29.5812 23.4624C29.802 23.4624 29.946 23.3664 30.1284 23.1264V21.312H30.834V24H30.258L30.2052 23.616H30.186C29.9556 23.8896 29.6964 24.0672 29.3268 24.0672ZM32.5702 24.0672C31.9318 24.0672 31.687 23.664 31.687 23.0592V21.8688H31.3078V21.3456L31.7206 21.312L31.8022 20.592H32.3926V21.312H33.055V21.8688H32.3926V23.0592C32.3926 23.3664 32.5174 23.5104 32.7574 23.5104C32.8438 23.5104 32.9494 23.4816 33.0214 23.4528L33.1366 23.9664C32.9926 24.0144 32.8054 24.0672 32.5702 24.0672ZM34.4734 24.0672C33.835 24.0672 33.5902 23.664 33.5902 23.0592V21.8688H33.211V21.3456L33.6238 21.312L33.7054 20.592H34.2958V21.312H34.9582V21.8688H34.2958V23.0592C34.2958 23.3664 34.4206 23.5104 34.6606 23.5104C34.747 23.5104 34.8526 23.4816 34.9246 23.4528L35.0398 23.9664C34.8958 24.0144 34.7086 24.0672 34.4734 24.0672ZM36.5391 24.0672C35.8671 24.0672 35.2479 23.5488 35.2479 22.6608C35.2479 21.7632 35.8671 21.2448 36.5391 21.2448C37.2111 21.2448 37.8303 21.7632 37.8303 22.6608C37.8303 23.5488 37.2111 24.0672 36.5391 24.0672ZM36.5391 23.4912C36.9039 23.4912 37.1103 23.1648 37.1103 22.6608C37.1103 22.152 36.9039 21.8208 36.5391 21.8208C36.1743 21.8208 35.9679 22.152 35.9679 22.6608C35.9679 23.1648 36.1743 23.4912 36.5391 23.4912ZM38.4206 24V21.312H38.9966L39.0446 21.6672H39.0638C39.299 21.4368 39.5726 21.2448 39.9374 21.2448C40.5182 21.2448 40.7678 21.648 40.7678 22.3248V24H40.0622V22.4112C40.0622 21.9984 39.947 21.8496 39.683 21.8496C39.4622 21.8496 39.323 21.9552 39.1214 22.152V24H38.4206Z" fill="white"/>
</g>
<defs>
<filter id="filter0_d_8033_14234" x="15.7794" y="15.3606" width="34.4413" height="15.4413" filterUnits="userSpaceOnUse" color-interpolation-filters="sRGB">
<feFlood flood-opacity="0" result="BackgroundImageFix"/>
<feColorMatrix in="SourceAlpha" type="matrix" values="0 0 0 0 0 0 0 0 0 0 0 0 0 0 0 0 0 0 127 0" result="hardAlpha"/>
<feOffset dy="0.58125"/>
<feGaussianBlur stdDeviation="0.610313"/>
<feComposite in2="hardAlpha" operator="out"/>
<feColorMatrix type="matrix" values="0 0 0 0 0.838942 0 0 0 0 0.750578 0 0 0 0 0.356954 0 0 0 0.24 0"/>
<feBlend mode="normal" in2="BackgroundImageFix" result="effect1_dropShadow_8033_14234"/>
<feBlend mode="normal" in="SourceGraphic" in2="effect1_dropShadow_8033_14234" result="shape"/>
</filter>
</defs>
</svg>
