<svg width="66" height="46" viewBox="0 0 66 46" fill="none" xmlns="http://www.w3.org/2000/svg">
<rect width="66" height="46" rx="4" fill="#F4F2FF"/>
<g filter="url(#filter0_d_8033_14361)">
<rect x="20" y="9" width="26" height="27" rx="2.38095" fill="white"/>
</g>
<rect x="22.7742" y="11.7527" width="20.4524" height="14.132" rx="1.4881" fill="#6555FF" stroke="#6555FF" stroke-width="0.595238"/>
<rect x="30.5234" y="30.4785" width="3.71429" height="0.613636" rx="0.306818" fill="#6555FF"/>
<rect x="34.8555" y="30.4785" width="0.619048" height="0.613636" rx="0.306818" fill="#DEDBFF"/>
<rect x="36.0938" y="30.4785" width="0.619048" height="0.613636" rx="0.306818" fill="#DEDBFF"/>
<rect x="29.2852" y="30.4785" width="0.619048" height="0.613636" rx="0.306818" fill="#DEDBFF"/>
<path d="M33.9233 17.5592C33.9233 17.5592 34.2981 17.5554 34.2981 17.9385C34.2981 17.9385 34.3328 18.3093 33.9233 18.3175C33.9233 18.3175 33.5564 18.3256 33.5601 17.9385C33.5603 17.9382 33.5562 17.5949 33.9233 17.5592ZM34.6616 16.9766C34.6616 16.9766 34.8588 16.9925 34.8588 17.172V19.8488C34.8588 19.8488 34.8471 20.0403 34.6616 20.0445V16.9766ZM31.1445 19.8491C31.1445 19.8491 31.1524 20.0447 31.3341 20.0447L34.6616 20.0445V19.4782H34.2989L33.5601 18.7041L33.0036 19.2823L32.2461 18.3172L31.5003 19.4703L31.3343 19.4742L31.3301 17.1724H31.1446L31.1445 19.8491ZM34.6616 16.9766H31.3341C31.3341 16.9766 31.1446 16.9729 31.1446 17.1724L34.6616 17.172V16.9766Z" fill="#F6F4FF"/>
<defs>
<filter id="filter0_d_8033_14361" x="17.1456" y="7.0106" width="31.7087" height="32.7087" filterUnits="userSpaceOnUse" color-interpolation-filters="sRGB">
<feFlood flood-opacity="0" result="BackgroundImageFix"/>
<feColorMatrix in="SourceAlpha" type="matrix" values="0 0 0 0 0 0 0 0 0 0 0 0 0 0 0 0 0 0 127 0" result="hardAlpha"/>
<feOffset dy="0.864955"/>
<feGaussianBlur stdDeviation="1.42718"/>
<feComposite in2="hardAlpha" operator="out"/>
<feColorMatrix type="matrix" values="0 0 0 0 0.118956 0 0 0 0 0.350962 0 0 0 0 0.333986 0 0 0 0.03 0"/>
<feBlend mode="normal" in2="BackgroundImageFix" result="effect1_dropShadow_8033_14361"/>
<feBlend mode="normal" in="SourceGraphic" in2="effect1_dropShadow_8033_14361" result="shape"/>
</filter>
</defs>
</svg>
