<svg width="66" height="46" viewBox="0 0 66 46" fill="none" xmlns="http://www.w3.org/2000/svg">
<rect width="66" height="46" rx="4" fill="#FFFBF4"/>
<rect x="12" y="25.7188" width="6" height="6" rx="0.58125" fill="#FFB116"/>
<path fill-rule="evenodd" clip-rule="evenodd" d="M16.9229 28.0098L14.4209 29.9912L14.4189 29.9893L14.418 29.9912L13.2852 28.5596L13.7891 28.1602L14.5234 29.0879L16.5234 27.5059L16.9229 28.0098Z" fill="white"/>
<path d="M24.3664 31.3124C23.0344 31.3124 22.012 30.3187 22.012 28.5835C22.012 26.8555 23.0632 25.8187 24.4024 25.8187C25.0648 25.8187 25.5832 26.1355 25.9072 26.4883L25.4536 27.0211C25.18 26.7403 24.8488 26.5459 24.4168 26.5459C23.5024 26.5459 22.8688 27.3091 22.8688 28.5547C22.8688 29.8147 23.4592 30.5851 24.3952 30.5851C24.8776 30.5851 25.252 30.3691 25.5688 30.0235L26.0152 30.5491C25.5904 31.0387 25.0504 31.3124 24.3664 31.3124ZM26.8827 31.2188V25.4803H27.7035V26.9995L27.6747 27.7843C28.0203 27.4531 28.4163 27.1579 28.9563 27.1579C29.7987 27.1579 30.1731 27.7195 30.1731 28.7275V31.2188H29.3451V28.8283C29.3451 28.1443 29.1435 27.8707 28.6755 27.8707C28.3083 27.8707 28.0563 28.0579 27.7035 28.4107V31.2188H26.8827ZM32.9385 31.3124C31.9593 31.3124 31.0737 30.5563 31.0737 29.2459C31.0737 27.9211 31.9593 27.1579 32.9385 27.1579C33.9177 27.1579 34.8033 27.9211 34.8033 29.2459C34.8033 30.5563 33.9177 31.3124 32.9385 31.3124ZM32.9385 30.6355C33.5649 30.6355 33.9537 30.0811 33.9537 29.2459C33.9537 28.4035 33.5649 27.8419 32.9385 27.8419C32.3193 27.8419 31.9305 28.4035 31.9305 29.2459C31.9305 30.0811 32.3193 30.6355 32.9385 30.6355ZM37.3612 31.3124C36.382 31.3124 35.4964 30.5563 35.4964 29.2459C35.4964 27.9211 36.382 27.1579 37.3612 27.1579C38.3404 27.1579 39.226 27.9211 39.226 29.2459C39.226 30.5563 38.3404 31.3124 37.3612 31.3124ZM37.3612 30.6355C37.9876 30.6355 38.3764 30.0811 38.3764 29.2459C38.3764 28.4035 37.9876 27.8419 37.3612 27.8419C36.742 27.8419 36.3532 28.4035 36.3532 29.2459C36.3532 30.0811 36.742 30.6355 37.3612 30.6355ZM41.2515 31.3124C40.7043 31.3124 40.1427 31.0819 39.7611 30.7651L40.1499 30.2323C40.5027 30.5131 40.8483 30.6859 41.2731 30.6859C41.7483 30.6859 41.9715 30.4555 41.9715 30.1531C41.9715 29.7931 41.5251 29.6347 41.0931 29.4691C40.5675 29.2675 39.9627 28.9867 39.9627 28.3171C39.9627 27.6547 40.4955 27.1579 41.3667 27.1579C41.8995 27.1579 42.3315 27.3739 42.6555 27.6259L42.2667 28.1371C41.9931 27.9355 41.7123 27.7915 41.3811 27.7915C40.9491 27.7915 40.7475 28.0075 40.7475 28.2811C40.7475 28.6195 41.1579 28.7491 41.5899 28.9075C42.1443 29.1163 42.7563 29.3611 42.7563 30.1099C42.7563 30.7723 42.2307 31.3124 41.2515 31.3124ZM45.2869 31.3124C44.2141 31.3124 43.3573 30.5491 43.3573 29.2459C43.3573 27.9571 44.2357 27.1579 45.1645 27.1579C46.2157 27.1579 46.7773 27.9139 46.7773 29.0371C46.7773 29.1955 46.7629 29.3611 46.7413 29.4547H44.1709C44.2357 30.2107 44.7109 30.6643 45.3949 30.6643C45.7477 30.6643 46.0501 30.5563 46.3381 30.3691L46.6261 30.8947C46.2589 31.1395 45.8053 31.3124 45.2869 31.3124ZM44.1637 28.8859H46.0645C46.0645 28.2019 45.7549 27.8059 45.1789 27.8059C44.6821 27.8059 44.2429 28.1875 44.1637 28.8859ZM49.0168 31.2188V30.7363C50.5792 29.3539 51.3856 28.3243 51.3856 27.4531C51.3856 26.8771 51.076 26.4811 50.4856 26.4811C50.068 26.4811 49.7224 26.7475 49.4416 27.0715L48.9736 26.6107C49.4272 26.1211 49.8952 25.8187 50.5864 25.8187C51.5584 25.8187 52.1848 26.4523 52.1848 27.4099C52.1848 28.4323 51.3712 29.4907 50.248 30.5635C50.5216 30.5347 50.8528 30.5131 51.112 30.5131H52.4368V31.2188H49.0168Z" fill="#FFB116"/>
<rect x="12" y="13.4004" width="6" height="6" rx="0.58125" fill="#FFB116"/>
<path fill-rule="evenodd" clip-rule="evenodd" d="M16.9229 15.6914L14.4209 17.6729L14.4189 17.6709L14.418 17.6729L13.2852 16.2412L13.7891 15.8418L14.5234 16.7695L16.5234 15.1875L16.9229 15.6914Z" fill="white"/>
<path d="M24.3664 18.994C23.0344 18.994 22.012 18.0004 22.012 16.2652C22.012 14.5372 23.0632 13.5004 24.4024 13.5004C25.0648 13.5004 25.5832 13.8172 25.9072 14.17L25.4536 14.7028C25.18 14.422 24.8488 14.2276 24.4168 14.2276C23.5024 14.2276 22.8688 14.9908 22.8688 16.2364C22.8688 17.4964 23.4592 18.2668 24.3952 18.2668C24.8776 18.2668 25.252 18.0508 25.5688 17.7052L26.0152 18.2308C25.5904 18.7204 25.0504 18.994 24.3664 18.994ZM26.8827 18.9004V13.162H27.7035V14.6812L27.6747 15.466C28.0203 15.1348 28.4163 14.8396 28.9563 14.8396C29.7987 14.8396 30.1731 15.4012 30.1731 16.4092V18.9004H29.3451V16.51C29.3451 15.826 29.1435 15.5524 28.6755 15.5524C28.3083 15.5524 28.0563 15.7396 27.7035 16.0924V18.9004H26.8827ZM32.9385 18.994C31.9593 18.994 31.0737 18.238 31.0737 16.9276C31.0737 15.6028 31.9593 14.8396 32.9385 14.8396C33.9177 14.8396 34.8033 15.6028 34.8033 16.9276C34.8033 18.238 33.9177 18.994 32.9385 18.994ZM32.9385 18.3172C33.5649 18.3172 33.9537 17.7628 33.9537 16.9276C33.9537 16.0852 33.5649 15.5236 32.9385 15.5236C32.3193 15.5236 31.9305 16.0852 31.9305 16.9276C31.9305 17.7628 32.3193 18.3172 32.9385 18.3172ZM37.3612 18.994C36.382 18.994 35.4964 18.238 35.4964 16.9276C35.4964 15.6028 36.382 14.8396 37.3612 14.8396C38.3404 14.8396 39.226 15.6028 39.226 16.9276C39.226 18.238 38.3404 18.994 37.3612 18.994ZM37.3612 18.3172C37.9876 18.3172 38.3764 17.7628 38.3764 16.9276C38.3764 16.0852 37.9876 15.5236 37.3612 15.5236C36.742 15.5236 36.3532 16.0852 36.3532 16.9276C36.3532 17.7628 36.742 18.3172 37.3612 18.3172ZM41.2515 18.994C40.7043 18.994 40.1427 18.7636 39.7611 18.4468L40.1499 17.914C40.5027 18.1948 40.8483 18.3676 41.2731 18.3676C41.7483 18.3676 41.9715 18.1372 41.9715 17.8348C41.9715 17.4748 41.5251 17.3164 41.0931 17.1508C40.5675 16.9492 39.9627 16.6684 39.9627 15.9988C39.9627 15.3364 40.4955 14.8396 41.3667 14.8396C41.8995 14.8396 42.3315 15.0556 42.6555 15.3076L42.2667 15.8188C41.9931 15.6172 41.7123 15.4732 41.3811 15.4732C40.9491 15.4732 40.7475 15.6892 40.7475 15.9628C40.7475 16.3012 41.1579 16.4308 41.5899 16.5892C42.1443 16.798 42.7563 17.0428 42.7563 17.7916C42.7563 18.454 42.2307 18.994 41.2515 18.994ZM45.2869 18.994C44.2141 18.994 43.3573 18.2308 43.3573 16.9276C43.3573 15.6388 44.2357 14.8396 45.1645 14.8396C46.2157 14.8396 46.7773 15.5956 46.7773 16.7188C46.7773 16.8772 46.7629 17.0428 46.7413 17.1364H44.1709C44.2357 17.8924 44.7109 18.346 45.3949 18.346C45.7477 18.346 46.0501 18.238 46.3381 18.0508L46.6261 18.5764C46.2589 18.8212 45.8053 18.994 45.2869 18.994ZM44.1637 16.5676H46.0645C46.0645 15.8836 45.7549 15.4876 45.1789 15.4876C44.6821 15.4876 44.2429 15.8692 44.1637 16.5676ZM49.3192 18.9004V18.2164H50.4784V14.53H49.528V14.0044C50.0248 13.9108 50.3776 13.7884 50.68 13.6012H51.3064V18.2164H52.3432V18.9004H49.3192Z" fill="#FFB116"/>
</svg>
