<svg width="66" height="46" viewBox="0 0 66 46" fill="none" xmlns="http://www.w3.org/2000/svg">
<rect width="66" height="46" rx="4" fill="#FFFBF4"/>
<g filter="url(#filter0_d_8033_14273)">
<rect x="19" y="8" width="27.6" height="30" rx="1.1625" fill="white"/>
</g>
<rect x="23.1992" y="31.4004" width="19.2" height="3.6" rx="0.58125" fill="#FFB116"/>
<path d="M29.3738 33.4004V32.0756H29.7842C30.056 32.0756 30.2522 32.162 30.2522 32.4014C30.2522 32.5274 30.182 32.648 30.0632 32.6876V32.6966C30.2144 32.729 30.3242 32.8316 30.3242 33.0116C30.3242 33.2744 30.11 33.4004 29.8166 33.4004H29.3738ZM29.5826 32.6282H29.7608C29.9624 32.6282 30.047 32.5526 30.047 32.4284C30.047 32.2898 29.9534 32.2376 29.7662 32.2376H29.5826V32.6282ZM29.5826 33.2366H29.7932C30.0002 33.2366 30.119 33.1628 30.119 33.0008C30.119 32.8514 30.0038 32.7866 29.7932 32.7866H29.5826V33.2366ZM30.8462 33.4238C30.6356 33.4238 30.5438 33.2852 30.5438 33.0332V32.4104H30.7508V33.008C30.7508 33.179 30.7994 33.2456 30.9164 33.2456C31.0082 33.2456 31.0712 33.2024 31.154 33.098V32.4104H31.361V33.4004H31.1918L31.1756 33.251H31.1702C31.0802 33.3554 30.983 33.4238 30.8462 33.4238ZM32.0056 33.4238C31.7824 33.4238 31.705 33.2852 31.705 33.0764V32.576H31.561V32.4212L31.714 32.4104L31.7374 32.1368H31.912V32.4104H32.1694V32.576H31.912V33.0782C31.912 33.197 31.9534 33.2582 32.056 33.2582C32.0902 33.2582 32.1334 33.2474 32.1622 33.2348L32.2 33.3878C32.1442 33.4058 32.0776 33.4238 32.0056 33.4238ZM32.6789 33.4238C32.4557 33.4238 32.3783 33.2852 32.3783 33.0764V32.576H32.2343V32.4212L32.3873 32.4104L32.4107 32.1368H32.5853V32.4104H32.8427V32.576H32.5853V33.0782C32.5853 33.197 32.6267 33.2582 32.7293 33.2582C32.7635 33.2582 32.8067 33.2474 32.8355 33.2348L32.8733 33.3878C32.8175 33.4058 32.7509 33.4238 32.6789 33.4238ZM33.4256 33.4238C33.1808 33.4238 32.9594 33.2348 32.9594 32.9072C32.9594 32.576 33.1808 32.3852 33.4256 32.3852C33.6704 32.3852 33.8918 32.576 33.8918 32.9072C33.8918 33.2348 33.6704 33.4238 33.4256 33.4238ZM33.4256 33.2546C33.5822 33.2546 33.6794 33.116 33.6794 32.9072C33.6794 32.6966 33.5822 32.5562 33.4256 32.5562C33.2708 32.5562 33.1736 32.6966 33.1736 32.9072C33.1736 33.116 33.2708 33.2546 33.4256 33.2546ZM34.1353 33.4004V32.4104H34.3045L34.3207 32.5472H34.3261C34.4179 32.459 34.5187 32.3852 34.6537 32.3852C34.8643 32.3852 34.9579 32.5256 34.9579 32.7776V33.4004H34.7509V32.8028C34.7509 32.6318 34.7005 32.5634 34.5835 32.5634C34.4917 32.5634 34.4287 32.6102 34.3405 32.6984V33.4004H34.1353Z" fill="white"/>
<rect x="23.3492" y="23.15" width="18.9" height="2.7" rx="0.43125" fill="#F8E2A5" stroke="#FFB116" stroke-width="0.3"/>
<rect x="23.3492" y="15.3492" width="18.9" height="2.7" rx="0.43125" fill="#F8E2A5" stroke="#FFB116" stroke-width="0.3"/>
<rect x="23.1992" y="20.5996" width="6" height="1.2" rx="0.290625" fill="#FFEFD5"/>
<rect x="23.1992" y="12.8008" width="6" height="1.2" rx="0.290625" fill="#FFEFD5"/>
<defs>
<filter id="filter0_d_8033_14273" x="15.88" y="5.75187" width="33.8416" height="36.24" filterUnits="userSpaceOnUse" color-interpolation-filters="sRGB">
<feFlood flood-opacity="0" result="BackgroundImageFix"/>
<feColorMatrix in="SourceAlpha" type="matrix" values="0 0 0 0 0 0 0 0 0 0 0 0 0 0 0 0 0 0 127 0" result="hardAlpha"/>
<feOffset dy="0.871875"/>
<feGaussianBlur stdDeviation="1.56"/>
<feComposite in2="hardAlpha" operator="out"/>
<feColorMatrix type="matrix" values="0 0 0 0 0.615385 0 0 0 0 0.409467 0 0 0 0 0.100592 0 0 0 0.07 0"/>
<feBlend mode="normal" in2="BackgroundImageFix" result="effect1_dropShadow_8033_14273"/>
<feBlend mode="normal" in="SourceGraphic" in2="effect1_dropShadow_8033_14273" result="shape"/>
</filter>
</defs>
</svg>
