<svg width="66" height="46" viewBox="0 0 66 46" fill="none" xmlns="http://www.w3.org/2000/svg">
<rect width="66" height="46" rx="4" fill="#FFFBF4"/>
<g filter="url(#filter0_d_8033_14261)">
<rect x="10" y="16" width="47" height="14" rx="2.4" fill="white"/>
<rect x="10.3" y="16.3" width="46.4" height="13.4" rx="2.1" stroke="#FFB116" stroke-width="0.6"/>
</g>
<path d="M16.1576 25.2928C15.2648 25.2928 14.9552 24.7384 14.9552 23.9032V21.9016H14.3792V21.2824L14.9912 21.2392L15.0848 20.1448H15.7832V21.2392H16.8128V21.9016H15.7832V23.9104C15.7832 24.3856 15.9488 24.6304 16.3592 24.6304C16.496 24.6304 16.6688 24.5872 16.784 24.5368L16.9352 25.1488C16.712 25.2208 16.4456 25.2928 16.1576 25.2928ZM19.2096 25.2928C18.1368 25.2928 17.28 24.5296 17.28 23.2264C17.28 21.9376 18.1584 21.1384 19.0872 21.1384C20.1384 21.1384 20.7 21.8944 20.7 23.0176C20.7 23.176 20.6856 23.3416 20.664 23.4352H18.0936C18.1584 24.1912 18.6336 24.6448 19.3176 24.6448C19.6704 24.6448 19.9728 24.5368 20.2608 24.3496L20.5488 24.8752C20.1816 25.12 19.728 25.2928 19.2096 25.2928ZM18.0864 22.8664H19.9872C19.9872 22.1824 19.6776 21.7864 19.1016 21.7864C18.6048 21.7864 18.1656 22.168 18.0864 22.8664ZM21.0361 25.1992L22.3177 23.1328L21.1297 21.2392H22.0225L22.4977 22.0384C22.6129 22.2544 22.7425 22.4776 22.8721 22.7008H22.9009C23.0089 22.4776 23.1241 22.2544 23.2321 22.0384L23.6497 21.2392H24.5137L23.3257 23.2264L24.6001 25.1992H23.7001L23.1817 24.364C23.0521 24.1264 22.9153 23.8816 22.7713 23.6584H22.7353C22.6129 23.8816 22.4905 24.1192 22.3681 24.364L21.9073 25.1992H21.0361ZM26.4725 25.2928C25.5797 25.2928 25.2701 24.7384 25.2701 23.9032V21.9016H24.6941V21.2824L25.3061 21.2392L25.3997 20.1448H26.0981V21.2392H27.1277V21.9016H26.0981V23.9104C26.0981 24.3856 26.2637 24.6304 26.6741 24.6304C26.8109 24.6304 26.9837 24.5872 27.0989 24.5368L27.2501 25.1488C27.0269 25.2208 26.7605 25.2928 26.4725 25.2928Z" fill="#FFB116"/>
<rect x="28" y="20.1992" width="0.3" height="6" fill="#FFB116"/>
<defs>
<filter id="filter0_d_8033_14261" x="8.77937" y="15.3606" width="49.4413" height="16.4413" filterUnits="userSpaceOnUse" color-interpolation-filters="sRGB">
<feFlood flood-opacity="0" result="BackgroundImageFix"/>
<feColorMatrix in="SourceAlpha" type="matrix" values="0 0 0 0 0 0 0 0 0 0 0 0 0 0 0 0 0 0 127 0" result="hardAlpha"/>
<feOffset dy="0.58125"/>
<feGaussianBlur stdDeviation="0.610313"/>
<feComposite in2="hardAlpha" operator="out"/>
<feColorMatrix type="matrix" values="0 0 0 0 0.838942 0 0 0 0 0.750578 0 0 0 0 0.356954 0 0 0 0.24 0"/>
<feBlend mode="normal" in2="BackgroundImageFix" result="effect1_dropShadow_8033_14261"/>
<feBlend mode="normal" in="SourceGraphic" in2="effect1_dropShadow_8033_14261" result="shape"/>
</filter>
</defs>
</svg>
