<svg width="66" height="46" viewBox="0 0 66 46" fill="none" xmlns="http://www.w3.org/2000/svg">
<rect width="66" height="46" rx="4" fill="#F4F2FF"/>
<path d="M17.328 10.368H24.672V11.4H17.328V10.368ZM26.904 11.344L28.064 11.04C28.048 11.28 28.072 11.648 28.104 11.84C26.056 12.432 25.72 12.56 25.512 12.704C25.464 12.536 25.328 12.112 25.224 11.88C25.432 11.832 25.616 11.656 25.872 11.352C26 11.216 26.248 10.904 26.528 10.488C25.792 10.576 25.592 10.632 25.464 10.688C25.424 10.512 25.28 10.08 25.168 9.832C25.344 9.784 25.472 9.616 25.648 9.36C25.832 9.104 26.384 8.112 26.688 7.176L27.552 7.584C27.24 8.312 26.808 9.096 26.344 9.728L27.048 9.672C27.216 9.4 27.376 9.104 27.52 8.824L28.28 9.304C27.88 10.008 27.4 10.72 26.904 11.344ZM30.736 8.6H29.928C29.896 9.192 29.848 9.76 29.792 10.296C30.032 10.992 30.368 11.656 30.8 12.232C31.104 11.752 31.336 11.2 31.504 10.576H30.184C30.352 10.048 30.56 9.312 30.736 8.6ZM31.976 9.72L32.568 9.952C32.336 11.144 31.936 12.144 31.416 12.936C31.832 13.336 32.296 13.664 32.816 13.896C32.616 14.072 32.336 14.424 32.192 14.664C31.696 14.4 31.24 14.072 30.848 13.672C30.456 14.104 30.032 14.44 29.56 14.696C29.432 14.488 29.104 14.128 28.896 13.984C29.4 13.728 29.848 13.384 30.24 12.968C29.984 12.616 29.752 12.248 29.544 11.848C29.312 13.008 28.928 13.976 28.344 14.72C28.184 14.576 27.736 14.264 27.512 14.144C27.744 13.88 27.936 13.584 28.112 13.248C27.232 13.632 26.296 14.024 25.56 14.328L25.336 13.384C26.008 13.176 27.048 12.768 28.048 12.384L28.208 13.048C28.72 11.888 28.92 10.352 29 8.6H28.216V7.712H31.896C31.736 8.368 31.544 9.12 31.36 9.76H31.824L31.976 9.72ZM38.36 9.496H35.616C35.96 10.336 36.44 11.08 37.056 11.712C37.608 11.104 38.048 10.376 38.36 9.496ZM40.656 9.496H39.432C39.024 10.648 38.48 11.584 37.784 12.36C38.608 13 39.616 13.464 40.808 13.744C40.592 13.952 40.312 14.368 40.168 14.632C38.912 14.296 37.88 13.768 37.04 13.064C36.16 13.784 35.088 14.312 33.8 14.68C33.696 14.456 33.416 14.008 33.224 13.792C34.472 13.48 35.504 13.024 36.336 12.376C35.616 11.584 35.064 10.624 34.632 9.496H33.376V8.568H36.752C36.664 8.24 36.488 7.792 36.304 7.44L37.32 7.144C37.528 7.512 37.768 8.024 37.864 8.352L37.176 8.568H40.656V9.496ZM45.504 12.376H46.928C46.36 11.624 45.888 10.72 45.536 9.744H45.504V12.376ZM43.024 12.376H44.496V9.744H44.44C44.088 10.72 43.6 11.624 43.024 12.376ZM48.52 9.744H46.504C47.008 10.912 47.816 12.008 48.752 12.64C48.504 12.832 48.168 13.208 48 13.472C47.696 13.24 47.416 12.96 47.152 12.648V13.344H45.504V14.696H44.496V13.344H42.816V12.632C42.536 12.96 42.232 13.256 41.912 13.512C41.744 13.272 41.44 12.912 41.216 12.736C42.144 12.096 42.96 10.952 43.456 9.744H41.496V8.776H44.496V7.232H45.504V8.776H48.52V9.744Z" fill="#6555FF"/>
<path d="M21.864 23.8H26.148V24.406H21.864V23.8ZM21.366 27.292H26.646V27.928H21.366V27.292ZM28.26 26.134L29.292 25.846C29.286 25.996 29.304 26.206 29.322 26.326C27.762 26.782 27.54 26.866 27.402 26.968C27.372 26.86 27.288 26.614 27.228 26.47C27.366 26.44 27.51 26.302 27.696 26.08C27.804 25.96 28.02 25.684 28.266 25.324C27.6 25.408 27.462 25.444 27.366 25.492C27.336 25.378 27.252 25.12 27.192 24.982C27.3 24.952 27.408 24.814 27.546 24.616C27.678 24.418 28.116 23.662 28.356 22.942L28.866 23.194C28.608 23.776 28.266 24.4 27.906 24.904L28.584 24.832C28.716 24.628 28.836 24.4 28.95 24.184L29.406 24.472C29.07 25.048 28.674 25.63 28.26 26.134ZM29.31 26.86L29.412 27.34C28.722 27.622 27.978 27.916 27.414 28.15L27.276 27.598C27.78 27.43 28.554 27.142 29.31 26.86ZM31.386 23.866H30.594C30.57 24.298 30.54 24.712 30.498 25.102C30.696 25.708 30.978 26.284 31.338 26.776C31.608 26.392 31.812 25.93 31.95 25.408H30.948C31.08 25.006 31.254 24.412 31.386 23.866ZM32.238 24.904L32.58 25.042C32.406 25.906 32.1 26.626 31.692 27.202C32.016 27.544 32.388 27.82 32.796 28.006C32.676 28.114 32.508 28.318 32.43 28.462C32.028 28.252 31.668 27.97 31.35 27.628C31.026 27.988 30.654 28.27 30.252 28.486C30.18 28.354 29.982 28.144 29.868 28.06C30.294 27.856 30.678 27.574 31.008 27.208C30.756 26.872 30.546 26.5 30.366 26.104C30.192 27.064 29.91 27.874 29.43 28.492C29.34 28.402 29.076 28.222 28.944 28.15C29.736 27.238 29.964 25.72 30.042 23.866H29.412V23.344H32.076C31.944 23.842 31.788 24.436 31.638 24.928H32.142L32.238 24.904ZM37.152 24.538H34.824C35.112 25.246 35.514 25.864 36.024 26.392C36.51 25.888 36.882 25.276 37.152 24.538ZM38.706 24.538H37.776C37.458 25.444 37.014 26.176 36.45 26.776C37.092 27.298 37.872 27.688 38.796 27.916C38.67 28.036 38.508 28.27 38.418 28.432C37.464 28.174 36.666 27.748 36.018 27.184C35.352 27.748 34.536 28.168 33.564 28.468C33.498 28.324 33.33 28.066 33.216 27.934C34.182 27.676 34.968 27.304 35.604 26.782C35.022 26.164 34.578 25.414 34.242 24.538H33.318V23.998H35.916C35.844 23.752 35.676 23.374 35.514 23.092L36.102 22.918C36.276 23.2 36.468 23.584 36.546 23.83L36.012 23.998H38.706V24.538ZM42.288 26.842H43.572C43.068 26.266 42.648 25.522 42.354 24.742H42.288V26.842ZM40.392 26.842H41.7V24.742H41.622C41.328 25.528 40.902 26.266 40.392 26.842ZM44.616 24.742H42.912C43.326 25.69 44.01 26.578 44.778 27.046C44.64 27.16 44.436 27.376 44.34 27.538C44.082 27.358 43.836 27.136 43.614 26.884V27.406H42.288V28.468H41.7V27.406H40.374V26.872C40.134 27.136 39.888 27.364 39.63 27.556C39.534 27.412 39.354 27.214 39.216 27.1C39.972 26.62 40.65 25.708 41.058 24.742H39.402V24.178H41.7V22.966H42.288V24.178H44.616V24.742Z" fill="#DEDBFF"/>
<path d="M25.5 36.028H28.5V36.404H25.5V36.028ZM25.76 37.308H28.18V37.688H25.76V37.308ZM25.276 38.668H28.7V39.044H25.276V38.668ZM29.84 37.756L30.528 37.564C30.524 37.664 30.536 37.804 30.548 37.884C29.508 38.188 29.36 38.244 29.268 38.312C29.248 38.24 29.192 38.076 29.152 37.98C29.244 37.96 29.34 37.868 29.464 37.72C29.536 37.64 29.68 37.456 29.844 37.216C29.4 37.272 29.308 37.296 29.244 37.328C29.224 37.252 29.168 37.08 29.128 36.988C29.2 36.968 29.272 36.876 29.364 36.744C29.452 36.612 29.744 36.108 29.904 35.628L30.244 35.796C30.072 36.184 29.844 36.6 29.604 36.936L30.056 36.888C30.144 36.752 30.224 36.6 30.3 36.456L30.604 36.648C30.38 37.032 30.116 37.42 29.84 37.756ZM30.54 38.24L30.608 38.56C30.148 38.748 29.652 38.944 29.276 39.1L29.184 38.732C29.52 38.62 30.036 38.428 30.54 38.24ZM31.924 36.244H31.396C31.38 36.532 31.36 36.808 31.332 37.068C31.464 37.472 31.652 37.856 31.892 38.184C32.072 37.928 32.208 37.62 32.3 37.272H31.632C31.72 37.004 31.836 36.608 31.924 36.244ZM32.492 36.936L32.72 37.028C32.604 37.604 32.4 38.084 32.128 38.468C32.344 38.696 32.592 38.88 32.864 39.004C32.784 39.076 32.672 39.212 32.62 39.308C32.352 39.168 32.112 38.98 31.9 38.752C31.684 38.992 31.436 39.18 31.168 39.324C31.12 39.236 30.988 39.096 30.912 39.04C31.196 38.904 31.452 38.716 31.672 38.472C31.504 38.248 31.364 38 31.244 37.736C31.128 38.376 30.94 38.916 30.62 39.328C30.56 39.268 30.384 39.148 30.296 39.1C30.824 38.492 30.976 37.48 31.028 36.244H30.608V35.896H32.384C32.296 36.228 32.192 36.624 32.092 36.952H32.428L32.492 36.936ZM35.768 36.692H34.216C34.408 37.164 34.676 37.576 35.016 37.928C35.34 37.592 35.588 37.184 35.768 36.692ZM36.804 36.692H36.184C35.972 37.296 35.676 37.784 35.3 38.184C35.728 38.532 36.248 38.792 36.864 38.944C36.78 39.024 36.672 39.18 36.612 39.288C35.976 39.116 35.444 38.832 35.012 38.456C34.568 38.832 34.024 39.112 33.376 39.312C33.332 39.216 33.22 39.044 33.144 38.956C33.788 38.784 34.312 38.536 34.736 38.188C34.348 37.776 34.052 37.276 33.828 36.692H33.212V36.332H34.944C34.896 36.168 34.784 35.916 34.676 35.728L35.068 35.612C35.184 35.8 35.312 36.056 35.364 36.22L35.008 36.332H36.804V36.692ZM39.192 38.228H40.048C39.712 37.844 39.432 37.348 39.236 36.828H39.192V38.228ZM37.928 38.228H38.8V36.828H38.748C38.552 37.352 38.268 37.844 37.928 38.228ZM40.744 36.828H39.608C39.884 37.46 40.34 38.052 40.852 38.364C40.76 38.44 40.624 38.584 40.56 38.692C40.388 38.572 40.224 38.424 40.076 38.256V38.604H39.192V39.312H38.8V38.604H37.916V38.248C37.756 38.424 37.592 38.576 37.42 38.704C37.356 38.608 37.236 38.476 37.144 38.4C37.648 38.08 38.1 37.472 38.372 36.828H37.268V36.452H38.8V35.644H39.192V36.452H40.744V36.828Z" fill="#DEDBFF"/>
</svg>
