<svg width="66" height="46" viewBox="0 0 66 46" fill="none" xmlns="http://www.w3.org/2000/svg">
<rect width="66" height="46" rx="4" fill="#FFFBF4"/>
<rect x="9.2963" y="17.2963" width="10.0741" height="11.4074" rx="2.07407" fill="white" stroke="#F8E2A5" stroke-width="0.592593"/>
<rect x="22.3315" y="17.2963" width="9.48148" height="11.4074" rx="2.07407" fill="white" stroke="#FFB116" stroke-width="0.592593"/>
<rect x="34.7768" y="17.2963" width="9.48148" height="11.4074" rx="2.07407" fill="white" stroke="#F8E2A5" stroke-width="0.592593"/>
<rect x="47.2221" y="17.2963" width="9.48148" height="11.4074" rx="2.07407" fill="white" stroke="#F8E2A5" stroke-width="0.592593"/>
<path d="M14.4758 24.3964C13.8074 24.3964 13.3048 24.0077 13.3048 23.4578C13.3048 23.0074 13.5798 22.7182 13.9069 22.5428V22.5191C13.6367 22.3247 13.4423 22.0593 13.4423 21.6847C13.4423 21.1206 13.888 20.7603 14.4995 20.7603C15.1205 20.7603 15.5188 21.1348 15.5188 21.6942C15.5188 22.0403 15.3007 22.3295 15.0684 22.4954V22.5191C15.3908 22.6945 15.6563 22.979 15.6563 23.4578C15.6563 23.9887 15.1869 24.3964 14.4758 24.3964ZM14.6986 22.3247C14.8693 22.1446 14.9499 21.9455 14.9499 21.7369C14.9499 21.4524 14.7792 21.2486 14.4853 21.2486C14.2483 21.2486 14.0586 21.405 14.0586 21.6847C14.0586 22.0166 14.3288 22.1778 14.6986 22.3247ZM14.4948 23.9034C14.7887 23.9034 15.0068 23.7375 15.0068 23.4341C15.0068 23.069 14.6844 22.9173 14.2293 22.7324C14.0397 22.8842 13.9069 23.1212 13.9069 23.3819C13.9069 23.6996 14.1677 23.9034 14.4948 23.9034Z" fill="#FFB116"/>
</svg>
