<svg width="66" height="46" viewBox="0 0 66 46" fill="none" xmlns="http://www.w3.org/2000/svg">
<rect width="66" height="46" rx="4" fill="#FFFBF4"/>
<rect x="15.6145" y="20.3254" width="5.07101" height="5.07101" rx="2.53551" fill="white"/>
<rect x="15.6145" y="20.3254" width="5.07101" height="5.07101" rx="2.53551" stroke="#FFB116" stroke-width="1.22899"/>
<path d="M25.9102 24.9476C24.7321 24.9476 23.7745 24.1034 23.7745 22.5473C23.7745 21.0101 24.7636 20.1092 25.9417 20.1092C26.5339 20.1092 27.0064 20.3927 27.3088 20.7077L26.8174 21.2999C26.5843 21.0731 26.3134 20.9093 25.9606 20.9093C25.255 20.9093 24.7258 21.5141 24.7258 22.5158C24.7258 23.5301 25.2046 24.1412 25.9417 24.1412C26.3386 24.1412 26.6536 23.9522 26.9056 23.6813L27.397 24.2609C27.0127 24.7082 26.515 24.9476 25.9102 24.9476ZM28.0725 24.8594V19.832H28.9923V21.0983L28.9545 21.7598C29.238 21.4952 29.5845 21.2432 30.0633 21.2432C30.8256 21.2432 31.1532 21.7724 31.1532 22.6607V24.8594H30.2271V22.7741C30.2271 22.2323 30.0759 22.037 29.7294 22.037C29.4396 22.037 29.2569 22.1756 28.9923 22.4339V24.8594H28.0725ZM33.5765 24.9476C32.6945 24.9476 31.8818 24.2672 31.8818 23.1017C31.8818 21.9236 32.6945 21.2432 33.5765 21.2432C34.4585 21.2432 35.2712 21.9236 35.2712 23.1017C35.2712 24.2672 34.4585 24.9476 33.5765 24.9476ZM33.5765 24.1916C34.0553 24.1916 34.3262 23.7632 34.3262 23.1017C34.3262 22.4339 34.0553 21.9992 33.5765 21.9992C33.0977 21.9992 32.8268 22.4339 32.8268 23.1017C32.8268 23.7632 33.0977 24.1916 33.5765 24.1916ZM37.5201 24.9476C36.6381 24.9476 35.8254 24.2672 35.8254 23.1017C35.8254 21.9236 36.6381 21.2432 37.5201 21.2432C38.4021 21.2432 39.2148 21.9236 39.2148 23.1017C39.2148 24.2672 38.4021 24.9476 37.5201 24.9476ZM37.5201 24.1916C37.9989 24.1916 38.2698 23.7632 38.2698 23.1017C38.2698 22.4339 37.9989 21.9992 37.5201 21.9992C37.0413 21.9992 36.7704 22.4339 36.7704 23.1017C36.7704 23.7632 37.0413 24.1916 37.5201 24.1916ZM40.9668 24.9476C40.4943 24.9476 39.9714 24.7397 39.6249 24.4499L40.047 23.8703C40.362 24.116 40.6644 24.2546 40.992 24.2546C41.3448 24.2546 41.5023 24.1034 41.5023 23.8829C41.5023 23.6183 41.1369 23.4986 40.7652 23.3537C40.3179 23.1836 39.8013 22.9127 39.8013 22.3268C39.8013 21.6905 40.3179 21.2432 41.1117 21.2432C41.6283 21.2432 42.0189 21.4574 42.315 21.6779L41.8992 22.2386C41.6472 22.0622 41.4015 21.9362 41.1369 21.9362C40.8219 21.9362 40.6707 22.0748 40.6707 22.2764C40.6707 22.5347 41.0172 22.6292 41.3889 22.7678C41.8551 22.9442 42.3717 23.1773 42.3717 23.8325C42.3717 24.4499 41.8866 24.9476 40.9668 24.9476ZM44.609 24.9476C43.6262 24.9476 42.8576 24.2609 42.8576 23.1017C42.8576 21.9551 43.6577 21.2432 44.5019 21.2432C45.4721 21.2432 45.9761 21.9551 45.9761 22.9316C45.9761 23.1017 45.9572 23.2718 45.932 23.3537H43.7585C43.8341 23.9333 44.2121 24.2357 44.735 24.2357C45.0248 24.2357 45.2768 24.1475 45.5288 23.99L45.8438 24.557C45.4973 24.7964 45.05 24.9476 44.609 24.9476ZM43.7459 22.7426H45.1823C45.1823 22.2638 44.9681 21.9614 44.5145 21.9614C44.1428 21.9614 43.8152 22.226 43.7459 22.7426ZM47.9393 24.8594V24.3239C49.2056 23.1899 49.9553 22.3142 49.9553 21.596C49.9553 21.1235 49.697 20.84 49.256 20.84C48.9158 20.84 48.6323 21.0605 48.3992 21.3188L47.8952 20.8148C48.3236 20.3612 48.7394 20.1092 49.3757 20.1092C50.2577 20.1092 50.8436 20.6762 50.8436 21.5456C50.8436 22.3898 50.1443 23.297 49.2938 24.1286C49.5269 24.1034 49.8356 24.0782 50.0498 24.0782H51.0641V24.8594H47.9393Z" fill="#FFB116"/>
<g opacity="0.8">
<rect x="18.9752" y="9.315" width="4.41" height="4.41" rx="2.205" fill="white"/>
<rect x="18.9752" y="9.315" width="4.41" height="4.41" rx="2.205" stroke="#F8E2A5" stroke-width="0.63"/>
<path d="M27.1917 12.5901C26.2492 12.5901 25.4831 11.9147 25.4831 10.6699C25.4831 9.44009 26.2744 8.71937 27.2169 8.71937C27.6906 8.71937 28.0686 8.94617 28.3105 9.19817L27.9174 9.67193C27.7309 9.49049 27.5142 9.35945 27.232 9.35945C26.6675 9.35945 26.2441 9.84329 26.2441 10.6447C26.2441 11.4561 26.6272 11.945 27.2169 11.945C27.5344 11.945 27.7864 11.7938 27.988 11.5771L28.3811 12.0407C28.0737 12.3986 27.6755 12.5901 27.1917 12.5901ZM28.9215 12.5195V8.49761H29.6574V9.51065L29.6271 10.0399C29.8539 9.82817 30.1311 9.62657 30.5142 9.62657C31.124 9.62657 31.3861 10.0499 31.3861 10.7606V12.5195H30.6452V10.8513C30.6452 10.4179 30.5242 10.2616 30.247 10.2616C30.0152 10.2616 29.869 10.3725 29.6574 10.5791V12.5195H28.9215ZM33.3247 12.5901C32.6191 12.5901 31.9689 12.0458 31.9689 11.1134C31.9689 10.1709 32.6191 9.62657 33.3247 9.62657C34.0303 9.62657 34.6805 10.1709 34.6805 11.1134C34.6805 12.0458 34.0303 12.5901 33.3247 12.5901ZM33.3247 11.9853C33.7077 11.9853 33.9245 11.6426 33.9245 11.1134C33.9245 10.5791 33.7077 10.2314 33.3247 10.2314C32.9417 10.2314 32.7249 10.5791 32.7249 11.1134C32.7249 11.6426 32.9417 11.9853 33.3247 11.9853ZM36.4796 12.5901C35.774 12.5901 35.1239 12.0458 35.1239 11.1134C35.1239 10.1709 35.774 9.62657 36.4796 9.62657C37.1852 9.62657 37.8354 10.1709 37.8354 11.1134C37.8354 12.0458 37.1852 12.5901 36.4796 12.5901ZM36.4796 11.9853C36.8627 11.9853 37.0794 11.6426 37.0794 11.1134C37.0794 10.5791 36.8627 10.2314 36.4796 10.2314C36.0966 10.2314 35.8799 10.5791 35.8799 11.1134C35.8799 11.6426 36.0966 11.9853 36.4796 11.9853ZM39.237 12.5901C38.859 12.5901 38.4407 12.4238 38.1635 12.1919L38.5011 11.7283C38.7531 11.9248 38.9951 12.0357 39.2571 12.0357C39.5394 12.0357 39.6654 11.9147 39.6654 11.7383C39.6654 11.5267 39.3731 11.4309 39.0757 11.315C38.7179 11.1789 38.3046 10.9622 38.3046 10.4935C38.3046 9.98441 38.7179 9.62657 39.3529 9.62657C39.7662 9.62657 40.0787 9.79793 40.3155 9.97433L39.9829 10.4229C39.7813 10.2818 39.5847 10.181 39.3731 10.181C39.1211 10.181 39.0001 10.2919 39.0001 10.4531C39.0001 10.6598 39.2773 10.7354 39.5747 10.8463C39.9476 10.9874 40.3609 11.1739 40.3609 11.698C40.3609 12.1919 39.9728 12.5901 39.237 12.5901ZM42.1507 12.5901C41.3645 12.5901 40.7496 12.0407 40.7496 11.1134C40.7496 10.1961 41.3897 9.62657 42.065 9.62657C42.8412 9.62657 43.2444 10.1961 43.2444 10.9773C43.2444 11.1134 43.2293 11.2495 43.2091 11.315H41.4703C41.5308 11.7787 41.8332 12.0206 42.2515 12.0206C42.4833 12.0206 42.6849 11.95 42.8865 11.824L43.1385 12.2776C42.8613 12.4691 42.5035 12.5901 42.1507 12.5901ZM41.4602 10.8261H42.6093C42.6093 10.4431 42.438 10.2011 42.0751 10.2011C41.7777 10.2011 41.5157 10.4128 41.4602 10.8261ZM45.0115 12.5195V11.9198H45.8128V9.56105H45.1375V9.10241C45.5104 9.03185 45.7675 8.93609 46.0044 8.78993H46.5537V11.9198H47.2543V12.5195H45.0115Z" fill="#F8E2A5"/>
</g>
<g opacity="0.8">
<rect x="18.9752" y="31.9947" width="4.41" height="4.41" rx="2.205" fill="white"/>
<rect x="18.9752" y="31.9947" width="4.41" height="4.41" rx="2.205" stroke="#F8E2A5" stroke-width="0.63"/>
<path d="M27.1917 35.2698C26.2492 35.2698 25.4831 34.5944 25.4831 33.3495C25.4831 32.1198 26.2744 31.3991 27.2169 31.3991C27.6906 31.3991 28.0686 31.6259 28.3105 31.8779L27.9174 32.3516C27.7309 32.1702 27.5142 32.0391 27.232 32.0391C26.6675 32.0391 26.2441 32.523 26.2441 33.3243C26.2441 34.1358 26.6272 34.6247 27.2169 34.6247C27.5344 34.6247 27.7864 34.4735 27.988 34.2567L28.3811 34.7204C28.0737 35.0783 27.6755 35.2698 27.1917 35.2698ZM28.9215 35.1992V31.1773H29.6574V32.1903L29.6271 32.7195C29.8539 32.5079 30.1311 32.3063 30.5142 32.3063C31.124 32.3063 31.3861 32.7296 31.3861 33.4403V35.1992H30.6452V33.531C30.6452 33.0975 30.5242 32.9413 30.247 32.9413C30.0152 32.9413 29.869 33.0522 29.6574 33.2588V35.1992H28.9215ZM33.3247 35.2698C32.6191 35.2698 31.9689 34.7255 31.9689 33.7931C31.9689 32.8506 32.6191 32.3063 33.3247 32.3063C34.0303 32.3063 34.6805 32.8506 34.6805 33.7931C34.6805 34.7255 34.0303 35.2698 33.3247 35.2698ZM33.3247 34.665C33.7077 34.665 33.9245 34.3223 33.9245 33.7931C33.9245 33.2588 33.7077 32.9111 33.3247 32.9111C32.9417 32.9111 32.7249 33.2588 32.7249 33.7931C32.7249 34.3223 32.9417 34.665 33.3247 34.665ZM36.4796 35.2698C35.774 35.2698 35.1239 34.7255 35.1239 33.7931C35.1239 32.8506 35.774 32.3063 36.4796 32.3063C37.1852 32.3063 37.8354 32.8506 37.8354 33.7931C37.8354 34.7255 37.1852 35.2698 36.4796 35.2698ZM36.4796 34.665C36.8627 34.665 37.0794 34.3223 37.0794 33.7931C37.0794 33.2588 36.8627 32.9111 36.4796 32.9111C36.0966 32.9111 35.8799 33.2588 35.8799 33.7931C35.8799 34.3223 36.0966 34.665 36.4796 34.665ZM39.237 35.2698C38.859 35.2698 38.4407 35.1035 38.1635 34.8716L38.5011 34.4079C38.7531 34.6045 38.9951 34.7154 39.2571 34.7154C39.5394 34.7154 39.6654 34.5944 39.6654 34.418C39.6654 34.2063 39.3731 34.1106 39.0757 33.9947C38.7179 33.8586 38.3046 33.6419 38.3046 33.1731C38.3046 32.6641 38.7179 32.3063 39.3529 32.3063C39.7662 32.3063 40.0787 32.4776 40.3155 32.654L39.9829 33.1026C39.7813 32.9615 39.5847 32.8607 39.3731 32.8607C39.1211 32.8607 39.0001 32.9715 39.0001 33.1328C39.0001 33.3395 39.2773 33.4151 39.5747 33.5259C39.9476 33.6671 40.3609 33.8535 40.3609 34.3777C40.3609 34.8716 39.9728 35.2698 39.237 35.2698ZM42.1507 35.2698C41.3645 35.2698 40.7496 34.7204 40.7496 33.7931C40.7496 32.8758 41.3897 32.3063 42.065 32.3063C42.8412 32.3063 43.2444 32.8758 43.2444 33.657C43.2444 33.7931 43.2293 33.9291 43.2091 33.9947H41.4703C41.5308 34.4583 41.8332 34.7003 42.2515 34.7003C42.4833 34.7003 42.6849 34.6297 42.8865 34.5037L43.1385 34.9573C42.8613 35.1488 42.5035 35.2698 42.1507 35.2698ZM41.4602 33.5058H42.6093C42.6093 33.1227 42.438 32.8808 42.0751 32.8808C41.7777 32.8808 41.5157 33.0925 41.4602 33.5058ZM45.9792 35.2698C45.3895 35.2698 44.9913 35.048 44.7292 34.7507L45.077 34.2819C45.2988 34.4987 45.5709 34.665 45.9086 34.665C46.2866 34.665 46.5436 34.4785 46.5436 34.1459C46.5436 33.7779 46.3269 33.5511 45.5155 33.5511V33.0169C46.2009 33.0169 46.4227 32.78 46.4227 32.4474C46.4227 32.1551 46.2412 31.9837 45.9237 31.9787C45.6566 31.9837 45.4399 32.1097 45.2181 32.3113L44.8401 31.8577C45.1627 31.5755 45.5205 31.3991 45.959 31.3991C46.6797 31.3991 47.1686 31.7519 47.1686 32.3919C47.1686 32.7951 46.9418 33.0875 46.5436 33.2437V33.2689C46.967 33.3848 47.2896 33.6973 47.2896 34.1862C47.2896 34.8716 46.6898 35.2698 45.9792 35.2698Z" fill="#F8E2A5"/>
</g>
</svg>
