<svg width="66" height="46" viewBox="0 0 66 46" fill="none" xmlns="http://www.w3.org/2000/svg">
<rect width="66" height="46" rx="4" fill="#F4F2FF"/>
<mask id="path-2-outside-1_8033_14257" maskUnits="userSpaceOnUse" x="14" y="14.5918" width="35" height="14" fill="black">
<rect fill="white" x="14" y="14.5918" width="35" height="14"/>
<path d="M18.6757 27.5918V18.0628H15.4633V16.1632H24.2046V18.0628H20.9614V27.5918H18.6757ZM28.6524 27.808C26.2431 27.808 24.3589 26.1246 24.3589 23.2829C24.3589 20.4721 26.3203 18.7269 28.3898 18.7269C30.7682 18.7269 32.0037 20.4721 32.0037 22.8659C32.0037 23.2829 31.9574 23.6999 31.8956 23.9007H26.5674C26.7528 25.3215 27.6794 26.0628 28.9613 26.0628C29.6717 26.0628 30.2894 25.8466 30.9072 25.4605L31.6794 26.8505C30.83 27.4374 29.7335 27.808 28.6524 27.808ZM26.5365 22.4026H30.0578C30.0578 21.2289 29.5327 20.4876 28.4207 20.4876C27.5095 20.4876 26.7064 21.1362 26.5365 22.4026ZM32.9679 27.5918L35.6706 23.0821L33.1378 18.9432H35.5779L36.4428 20.4876C36.6899 20.9663 36.9524 21.4605 37.215 21.9393H37.2768C37.4775 21.4605 37.7092 20.9663 37.91 20.4876L38.6358 18.9432H40.9833L38.4505 23.3447L41.1532 27.5918H38.7131L37.7555 26.0165C37.4775 25.5069 37.1995 24.9818 36.9216 24.4876H36.8443C36.5972 24.9818 36.3656 25.4914 36.1185 26.0165L35.3154 27.5918H32.9679ZM45.6053 27.808C43.5512 27.808 42.7636 26.5107 42.7636 24.5648V20.7347H41.5435V19.0513L42.8717 18.9432L43.1343 16.6266H45.0339V18.9432H47.1651V20.7347H45.0339V24.5648C45.0339 25.5532 45.4354 26.0165 46.2076 26.0165C46.4856 26.0165 46.8254 25.9238 47.057 25.8312L47.4277 27.4837C46.9644 27.6381 46.3621 27.808 45.6053 27.808Z"/>
</mask>
<path d="M18.6757 27.5918V18.0628H15.4633V16.1632H24.2046V18.0628H20.9614V27.5918H18.6757ZM28.6524 27.808C26.2431 27.808 24.3589 26.1246 24.3589 23.2829C24.3589 20.4721 26.3203 18.7269 28.3898 18.7269C30.7682 18.7269 32.0037 20.4721 32.0037 22.8659C32.0037 23.2829 31.9574 23.6999 31.8956 23.9007H26.5674C26.7528 25.3215 27.6794 26.0628 28.9613 26.0628C29.6717 26.0628 30.2894 25.8466 30.9072 25.4605L31.6794 26.8505C30.83 27.4374 29.7335 27.808 28.6524 27.808ZM26.5365 22.4026H30.0578C30.0578 21.2289 29.5327 20.4876 28.4207 20.4876C27.5095 20.4876 26.7064 21.1362 26.5365 22.4026ZM32.9679 27.5918L35.6706 23.0821L33.1378 18.9432H35.5779L36.4428 20.4876C36.6899 20.9663 36.9524 21.4605 37.215 21.9393H37.2768C37.4775 21.4605 37.7092 20.9663 37.91 20.4876L38.6358 18.9432H40.9833L38.4505 23.3447L41.1532 27.5918H38.7131L37.7555 26.0165C37.4775 25.5069 37.1995 24.9818 36.9216 24.4876H36.8443C36.5972 24.9818 36.3656 25.4914 36.1185 26.0165L35.3154 27.5918H32.9679ZM45.6053 27.808C43.5512 27.808 42.7636 26.5107 42.7636 24.5648V20.7347H41.5435V19.0513L42.8717 18.9432L43.1343 16.6266H45.0339V18.9432H47.1651V20.7347H45.0339V24.5648C45.0339 25.5532 45.4354 26.0165 46.2076 26.0165C46.4856 26.0165 46.8254 25.9238 47.057 25.8312L47.4277 27.4837C46.9644 27.6381 46.3621 27.808 45.6053 27.808Z" fill="#6555FF"/>
<path d="M18.6757 27.5918H18.0817V28.1858H18.6757V27.5918ZM18.6757 18.0628H19.2697V17.4688H18.6757V18.0628ZM15.4633 18.0628H14.8693V18.6568H15.4633V18.0628ZM15.4633 16.1632V15.5692H14.8693V16.1632H15.4633ZM24.2046 16.1632H24.7986V15.5692H24.2046V16.1632ZM24.2046 18.0628V18.6568H24.7986V18.0628H24.2046ZM20.9614 18.0628V17.4688H20.3674V18.0628H20.9614ZM20.9614 27.5918V28.1858H21.5554V27.5918H20.9614ZM18.6757 27.5918H19.2697V18.0628H18.6757H18.0817V27.5918H18.6757ZM18.6757 18.0628V17.4688H15.4633V18.0628V18.6568H18.6757V18.0628ZM15.4633 18.0628H16.0573V16.1632H15.4633H14.8693V18.0628H15.4633ZM15.4633 16.1632V16.7572H24.2046V16.1632V15.5692H15.4633V16.1632ZM24.2046 16.1632H23.6106V18.0628H24.2046H24.7986V16.1632H24.2046ZM24.2046 18.0628V17.4688H20.9614V18.0628V18.6568H24.2046V18.0628ZM20.9614 18.0628H20.3674V27.5918H20.9614H21.5554V18.0628H20.9614ZM20.9614 27.5918V26.9978H18.6757V27.5918V28.1858H20.9614V27.5918ZM31.8956 23.9007V24.4947H32.3343L32.4633 24.0754L31.8956 23.9007ZM26.5674 23.9007V23.3067H25.8909L25.9784 23.9775L26.5674 23.9007ZM30.9072 25.4605L31.4264 25.1721L31.1227 24.6253L30.5924 24.9568L30.9072 25.4605ZM31.6794 26.8505L32.017 27.3392L32.4603 27.033L32.1986 26.562L31.6794 26.8505ZM26.5365 22.4026L25.9478 22.3236L25.8575 22.9966H26.5365V22.4026ZM30.0578 22.4026V22.9966H30.6518V22.4026H30.0578ZM28.6524 27.808V27.214C27.5882 27.214 26.6721 26.8442 26.0233 26.1921C25.3761 25.5418 24.9529 24.5683 24.9529 23.2829H24.3589H23.7649C23.7649 24.8392 24.2838 26.1283 25.1811 27.0301C26.0766 27.9301 27.3073 28.402 28.6524 28.402V27.808ZM24.3589 23.2829H24.9529C24.9529 20.7717 26.6762 19.3209 28.3898 19.3209V18.7269V18.1329C25.9645 18.1329 23.7649 20.1725 23.7649 23.2829H24.3589ZM28.3898 18.7269V19.3209C29.4203 19.3209 30.1483 19.6917 30.6303 20.2765C31.1249 20.8767 31.4097 21.7639 31.4097 22.8659H32.0037H32.5977C32.5977 21.5741 32.2648 20.3919 31.5471 19.521C30.8167 18.6347 29.7377 18.1329 28.3898 18.1329V18.7269ZM32.0037 22.8659H31.4097C31.4097 23.2633 31.3635 23.6102 31.3279 23.726L31.8956 23.9007L32.4633 24.0754C32.5513 23.7897 32.5977 23.3025 32.5977 22.8659H32.0037ZM31.8956 23.9007V23.3067H26.5674V23.9007V24.4947H31.8956V23.9007ZM26.5674 23.9007L25.9784 23.9775C26.0861 24.803 26.4184 25.4863 26.9621 25.9617C27.5049 26.4363 28.2046 26.6568 28.9613 26.6568V26.0628V25.4688C28.436 25.4688 28.0315 25.3187 27.7442 25.0674C27.4577 24.817 27.2341 24.4192 27.1564 23.8239L26.5674 23.9007ZM28.9613 26.0628V26.6568C29.8062 26.6568 30.5317 26.3957 31.222 25.9642L30.9072 25.4605L30.5924 24.9568C30.0472 25.2976 29.5371 25.4688 28.9613 25.4688V26.0628ZM30.9072 25.4605L30.3879 25.749L31.1601 27.139L31.6794 26.8505L32.1986 26.562L31.4264 25.1721L30.9072 25.4605ZM31.6794 26.8505L31.3418 26.3618C30.5851 26.8845 29.6052 27.214 28.6524 27.214V27.808V28.402C29.8617 28.402 31.0748 27.9902 32.017 27.3392L31.6794 26.8505ZM26.5365 22.4026V22.9966H30.0578V22.4026V21.8086H26.5365V22.4026ZM30.0578 22.4026H30.6518C30.6518 21.7387 30.5047 21.1064 30.1169 20.63C29.7126 20.1332 29.1188 19.8936 28.4207 19.8936V20.4876V21.0816C28.8346 21.0816 29.0593 21.2125 29.1956 21.3799C29.3483 21.5676 29.4638 21.8928 29.4638 22.4026H30.0578ZM28.4207 20.4876V19.8936C27.8194 19.8936 27.242 20.1098 26.7906 20.5404C26.3407 20.9696 26.0475 21.5807 25.9478 22.3236L26.5365 22.4026L27.1253 22.4816C27.1955 21.9581 27.3887 21.6117 27.6107 21.4C27.8311 21.1896 28.1108 21.0816 28.4207 21.0816V20.4876ZM32.9679 27.5918L32.4584 27.2864L31.9194 28.1858H32.9679V27.5918ZM35.6706 23.0821L36.1801 23.3875L36.365 23.0789L36.1772 22.7721L35.6706 23.0821ZM33.1378 18.9432V18.3492H32.0779L32.6311 19.2532L33.1378 18.9432ZM35.5779 18.9432L36.0962 18.6529L35.9261 18.3492H35.5779V18.9432ZM36.4428 20.4876L36.9706 20.2151L36.966 20.2061L36.9611 20.1973L36.4428 20.4876ZM37.215 21.9393L36.6942 22.2249L36.8633 22.5333H37.215V21.9393ZM37.2768 21.9393V22.5333H37.6718L37.8245 22.169L37.2768 21.9393ZM37.91 20.4876L37.3724 20.2349L37.367 20.2463L37.3622 20.2578L37.91 20.4876ZM38.6358 18.9432V18.3492H38.2587L38.0983 18.6905L38.6358 18.9432ZM40.9833 18.9432L41.4982 19.2394L42.0105 18.3492H40.9833V18.9432ZM38.4505 23.3447L37.9357 23.0484L37.7563 23.3602L37.9494 23.6636L38.4505 23.3447ZM41.1532 27.5918V28.1858H42.2353L41.6543 27.2729L41.1532 27.5918ZM38.7131 27.5918L38.2055 27.9003L38.379 28.1858H38.7131V27.5918ZM37.7555 26.0165L37.2341 26.3009L37.2407 26.3132L37.2479 26.325L37.7555 26.0165ZM36.9216 24.4876L37.4393 24.1963L37.269 23.8936H36.9216V24.4876ZM36.8443 24.4876V23.8936H36.4772L36.313 24.2219L36.8443 24.4876ZM36.1185 26.0165L36.6477 26.2863L36.6519 26.2779L36.6559 26.2694L36.1185 26.0165ZM35.3154 27.5918V28.1858H35.6793L35.8446 27.8616L35.3154 27.5918ZM32.9679 27.5918L33.4774 27.8972L36.1801 23.3875L35.6706 23.0821L35.1611 22.7768L32.4584 27.2864L32.9679 27.5918ZM35.6706 23.0821L36.1772 22.7721L33.6444 18.6331L33.1378 18.9432L32.6311 19.2532L35.1639 23.3922L35.6706 23.0821ZM33.1378 18.9432V19.5372H35.5779V18.9432V18.3492H33.1378V18.9432ZM35.5779 18.9432L35.0597 19.2334L35.9245 20.7778L36.4428 20.4876L36.9611 20.1973L36.0962 18.6529L35.5779 18.9432ZM36.4428 20.4876L35.9149 20.76C36.1642 21.243 36.4291 21.7416 36.6942 22.2249L37.215 21.9393L37.7358 21.6537C37.4758 21.1795 37.2156 20.6897 36.9706 20.2151L36.4428 20.4876ZM37.215 21.9393V22.5333H37.2768V21.9393V21.3453H37.215V21.9393ZM37.2768 21.9393L37.8245 22.169C37.9221 21.9364 38.0276 21.699 38.1362 21.4547C38.2438 21.2125 38.3545 20.9634 38.4578 20.7173L37.91 20.4876L37.3622 20.2578C37.2646 20.4904 37.1591 20.7279 37.0506 20.9722C36.9429 21.2144 36.8322 21.4634 36.729 21.7096L37.2768 21.9393ZM37.91 20.4876L38.4476 20.7402L39.1734 19.1958L38.6358 18.9432L38.0983 18.6905L37.3724 20.2349L37.91 20.4876ZM38.6358 18.9432V19.5372H40.9833V18.9432V18.3492H38.6358V18.9432ZM40.9833 18.9432L40.4685 18.6469L37.9357 23.0484L38.4505 23.3447L38.9654 23.641L41.4982 19.2394L40.9833 18.9432ZM38.4505 23.3447L37.9494 23.6636L40.6521 27.9107L41.1532 27.5918L41.6543 27.2729L38.9516 23.0258L38.4505 23.3447ZM41.1532 27.5918V26.9978H38.7131V27.5918V28.1858H41.1532V27.5918ZM38.7131 27.5918L39.2206 27.2833L38.2631 25.708L37.7555 26.0165L37.2479 26.325L38.2055 27.9003L38.7131 27.5918ZM37.7555 26.0165L38.277 25.7321C38.0042 25.2319 37.7195 24.6945 37.4393 24.1963L36.9216 24.4876L36.4038 24.7788C36.6796 25.269 36.9509 25.7818 37.2341 26.3009L37.7555 26.0165ZM36.9216 24.4876V23.8936H36.8443V24.4876V25.0816H36.9216V24.4876ZM36.8443 24.4876L36.313 24.2219C36.0617 24.7245 35.8236 25.2481 35.581 25.7636L36.1185 26.0165L36.6559 26.2694C36.9075 25.7347 37.1327 25.239 37.3756 24.7532L36.8443 24.4876ZM36.1185 26.0165L35.5893 25.7467L34.7862 27.322L35.3154 27.5918L35.8446 27.8616L36.6477 26.2863L36.1185 26.0165ZM35.3154 27.5918V26.9978H32.9679V27.5918V28.1858H35.3154V27.5918ZM42.7636 20.7347H43.3576V20.1407H42.7636V20.7347ZM41.5435 20.7347H40.9495V21.3287H41.5435V20.7347ZM41.5435 19.0513L41.4953 18.4592L40.9495 18.5036V19.0513H41.5435ZM42.8717 18.9432L42.9199 19.5352L43.4069 19.4956L43.4619 19.01L42.8717 18.9432ZM43.1343 16.6266V16.0326H42.6038L42.544 16.5597L43.1343 16.6266ZM45.0339 16.6266H45.6279V16.0326H45.0339V16.6266ZM45.0339 18.9432H44.4399V19.5372H45.0339V18.9432ZM47.1651 18.9432H47.7591V18.3492H47.1651V18.9432ZM47.1651 20.7347V21.3287H47.7591V20.7347H47.1651ZM45.0339 20.7347V20.1407H44.4399V20.7347H45.0339ZM47.057 25.8312L47.6366 25.7012L47.484 25.0206L46.8364 25.2797L47.057 25.8312ZM47.4277 27.4837L47.6155 28.0472L48.1248 27.8775L48.0073 27.3537L47.4277 27.4837ZM45.6053 27.808V27.214C44.7113 27.214 44.1925 26.9385 43.8782 26.5452C43.5439 26.127 43.3576 25.4729 43.3576 24.5648H42.7636H42.1696C42.1696 25.6026 42.3772 26.5701 42.9502 27.287C43.5432 28.0289 44.4452 28.402 45.6053 28.402V27.808ZM42.7636 24.5648H43.3576V20.7347H42.7636H42.1696V24.5648H42.7636ZM42.7636 20.7347V20.1407H41.5435V20.7347V21.3287H42.7636V20.7347ZM41.5435 20.7347H42.1375V19.0513H41.5435H40.9495V20.7347H41.5435ZM41.5435 19.0513L41.5917 19.6433L42.9199 19.5352L42.8717 18.9432L42.8235 18.3511L41.4953 18.4592L41.5435 19.0513ZM42.8717 18.9432L43.4619 19.01L43.7245 16.6934L43.1343 16.6266L42.544 16.5597L42.2815 18.8763L42.8717 18.9432ZM43.1343 16.6266V17.2206H45.0339V16.6266V16.0326H43.1343V16.6266ZM45.0339 16.6266H44.4399V18.9432H45.0339H45.6279V16.6266H45.0339ZM45.0339 18.9432V19.5372H47.1651V18.9432V18.3492H45.0339V18.9432ZM47.1651 18.9432H46.5711V20.7347H47.1651H47.7591V18.9432H47.1651ZM47.1651 20.7347V20.1407H45.0339V20.7347V21.3287H47.1651V20.7347ZM45.0339 20.7347H44.4399V24.5648H45.0339H45.6279V20.7347H45.0339ZM45.0339 24.5648H44.4399C44.4399 25.1238 44.5509 25.6478 44.8724 26.0386C45.2127 26.4523 45.6982 26.6105 46.2076 26.6105V26.0165V25.4225C45.9448 25.4225 45.8435 25.3491 45.7899 25.2839C45.7176 25.1961 45.6279 24.9942 45.6279 24.5648H45.0339ZM46.2076 26.0165V26.6105C46.5897 26.6105 47.0083 26.4904 47.2776 26.3827L47.057 25.8312L46.8364 25.2797C46.6424 25.3573 46.3815 25.4225 46.2076 25.4225V26.0165ZM47.057 25.8312L46.4774 25.9612L46.8481 27.6137L47.4277 27.4837L48.0073 27.3537L47.6366 25.7012L47.057 25.8312ZM47.4277 27.4837L47.2399 26.9202C46.8027 27.0659 46.27 27.214 45.6053 27.214V27.808V28.402C46.4541 28.402 47.126 28.2104 47.6155 28.0472L47.4277 27.4837Z" fill="white" mask="url(#path-2-outside-1_8033_14257)"/>
<rect x="50.3984" y="16" width="0.6" height="13" fill="#6555FF"/>
</svg>
