<svg width="66" height="46" viewBox="0 0 66 46" fill="none" xmlns="http://www.w3.org/2000/svg">
<rect width="66" height="46" rx="4" fill="#FFFBF4"/>
<g filter="url(#filter0_d_8033_14245)">
<rect x="21" y="11" width="24" height="24" rx="2.66667" fill="white"/>
<path d="M28.54 18.8389H35.6504C36.0954 18.8389 36.4854 19.2248 36.4854 19.7373V21.9033L36.9922 21.5957L37.9521 21.0117C38.1513 20.8905 38.4541 21.0237 38.4541 21.3408V24.8535C38.4539 25.1699 38.1517 25.3031 37.9521 25.1816L36.9922 24.5977L36.4854 24.29V26.1895C36.4854 26.702 36.0954 27.0879 35.6504 27.0879H28.54C28.095 27.0879 27.7041 26.702 27.7041 26.1895V19.7373C27.7041 19.2248 28.095 18.8389 28.54 18.8389Z" fill="#FFB116" stroke="#FFB116" stroke-width="0.666667"/>
<path d="M29.1484 21.421C29.1484 21.5291 29.1697 21.6362 29.2111 21.7361C29.2525 21.836 29.3131 21.9267 29.3896 22.0032C29.466 22.0796 29.5568 22.1403 29.6567 22.1817C29.7566 22.223 29.8636 22.2443 29.9718 22.2443C30.0799 22.2443 30.187 22.223 30.2868 22.1817C30.3867 22.1403 30.4775 22.0796 30.554 22.0032C30.6304 21.9267 30.6911 21.836 30.7324 21.7361C30.7738 21.6362 30.7951 21.5291 30.7951 21.421C30.7951 21.3129 30.7738 21.2058 30.7324 21.1059C30.6911 21.006 30.6304 20.9153 30.554 20.8388C30.4775 20.7624 30.3867 20.7017 30.2868 20.6603C30.187 20.619 30.0799 20.5977 29.9718 20.5977C29.8636 20.5977 29.7566 20.619 29.6567 20.6603C29.5568 20.7017 29.466 20.7624 29.3896 20.8388C29.3131 20.9153 29.2525 21.006 29.2111 21.1059C29.1697 21.2058 29.1484 21.3129 29.1484 21.421Z" fill="white"/>
</g>
<defs>
<filter id="filter0_d_8033_14245" x="17.5333" y="8.50208" width="30.9333" height="30.9333" filterUnits="userSpaceOnUse" color-interpolation-filters="sRGB">
<feFlood flood-opacity="0" result="BackgroundImageFix"/>
<feColorMatrix in="SourceAlpha" type="matrix" values="0 0 0 0 0 0 0 0 0 0 0 0 0 0 0 0 0 0 127 0" result="hardAlpha"/>
<feOffset dy="0.96875"/>
<feGaussianBlur stdDeviation="1.73333"/>
<feComposite in2="hardAlpha" operator="out"/>
<feColorMatrix type="matrix" values="0 0 0 0 0.615385 0 0 0 0 0.409467 0 0 0 0 0.100592 0 0 0 0.07 0"/>
<feBlend mode="normal" in2="BackgroundImageFix" result="effect1_dropShadow_8033_14245"/>
<feBlend mode="normal" in="SourceGraphic" in2="effect1_dropShadow_8033_14245" result="shape"/>
</filter>
</defs>
</svg>
