<svg width="18" height="18" viewBox="0 0 18 18" fill="none" xmlns="http://www.w3.org/2000/svg">
<g id="vuesax/linear/3dcube">
<g id="3dcube">
<path id="Vector" d="M9.69 1.69586L14.5725 4.32836C15.1425 4.63586 15.1425 5.51336 14.5725 5.82086L9.69 8.45336C9.255 8.68586 8.745 8.68586 8.31 8.45336L3.4275 5.82086C2.8575 5.51336 2.8575 4.63586 3.4275 4.32836L8.31 1.69586C8.745 1.46336 9.255 1.46336 9.69 1.69586Z" stroke="white" stroke-width="1.1" stroke-linecap="round" stroke-linejoin="round"/>
<path id="Vector_2" d="M2.7075 7.59775L7.245 9.87025C7.8075 10.1553 8.1675 10.7328 8.1675 11.3628V15.6528C8.1675 16.2753 7.515 16.6728 6.96 16.3953L2.4225 14.1228C1.86 13.8378 1.5 13.2603 1.5 12.6303V8.34025C1.5 7.71775 2.1525 7.32025 2.7075 7.59775Z" stroke="white" stroke-width="1.1" stroke-linecap="round" stroke-linejoin="round"/>
<path id="Vector_3" d="M15.292 7.59775L10.7545 9.87025C10.192 10.1553 9.83203 10.7328 9.83203 11.3628V15.6528C9.83203 16.2753 10.4845 16.6728 11.0395 16.3953L15.577 14.1228C16.1395 13.8378 16.4995 13.2603 16.4995 12.6303V8.34025C16.4995 7.71775 15.847 7.32025 15.292 7.59775Z" stroke="white" stroke-width="1.1" stroke-linecap="round" stroke-linejoin="round"/>
</g>
</g>
</svg>
