<svg width="14" height="14" viewBox="0 0 14 14" fill="none" xmlns="http://www.w3.org/2000/svg">
<g id="Frame">
<path id="Vector" d="M12.1304 4.11506C12.1304 4.02406 12.0814 3.93306 11.9974 3.89106L7.12538 1.13306C7.04838 1.09106 6.95038 1.09106 6.87338 1.13306L2.00138 3.88406C1.91738 3.93306 1.86837 4.01706 1.86837 4.10806C1.86837 4.19906 1.91738 4.29006 2.00138 4.33206L6.87338 7.05506C6.91538 7.07606 6.95738 7.09006 6.99938 7.09006C7.04138 7.09006 7.08338 7.08306 7.12538 7.05506L11.9974 4.33206C12.0814 4.29006 12.1304 4.20606 12.1304 4.11506ZM6.34838 7.79706L1.98738 5.48706C1.91038 5.44506 1.81237 5.44506 1.73537 5.49406C1.65837 5.54306 1.60938 5.62706 1.60938 5.71106V10.0791C1.60938 10.1701 1.65837 10.2541 1.73537 10.3031L6.09637 12.8651C6.13837 12.8861 6.18037 12.9001 6.22937 12.9001C6.27137 12.9001 6.32038 12.8861 6.35538 12.8651C6.43238 12.8161 6.48138 12.7321 6.48138 12.6411V8.02106C6.48838 7.93006 6.43238 7.84606 6.34838 7.79706ZM7.65038 7.79706C7.56638 7.83906 7.51038 7.93006 7.51038 8.02106V12.6411C7.51038 12.7321 7.55937 12.8161 7.63637 12.8651C7.67837 12.8861 7.72037 12.9001 7.76237 12.9001C7.80437 12.9001 7.85338 12.8861 7.89538 12.8651L12.2564 10.3031C12.3334 10.2541 12.3824 10.1701 12.3824 10.0791V5.71806C12.3824 5.62706 12.3334 5.54306 12.2564 5.50106C12.1794 5.45906 12.0814 5.45206 12.0044 5.49406L7.65038 7.79706Z" fill="#194BFB"/>
</g>
</svg>
