<svg width="20" height="20" viewBox="0 0 20 20" fill="none" xmlns="http://www.w3.org/2000/svg">
<g id="Frame">
<path id="Vector" d="M10 1.25C15.8333 1.25 18.75 4.16667 18.75 10C18.75 15.8333 15.8333 18.75 10 18.75C4.16667 18.75 1.25 15.8333 1.25 10C1.25 4.16667 4.16667 1.25 10 1.25Z" fill="#194BFB"/>
<path id="Vector_2" d="M9.68432 9.3503C8.63564 8.94353 7.38982 9.1472 6.5483 9.97903C5.41229 11.0879 5.41229 12.8866 6.5483 14.0057C7.68385 15.1249 9.52699 15.1146 10.6737 14.0057C11.4694 13.238 11.7295 12.0812 11.3619 11.0584C11.3503 11.0259 11.3342 10.9855 11.3137 10.9371C11.2931 10.8885 11.2876 10.8348 11.298 10.783C11.3084 10.7312 11.3342 10.6838 11.372 10.6469L11.4505 10.5703L12.5472 9.49937C12.6492 9.39981 12.812 9.39978 12.9139 9.49929L13.9192 10.4801C14.0212 10.5796 14.1839 10.5796 14.2859 10.4801L15.2817 9.50819C15.3855 9.40692 15.3875 9.24073 15.2862 9.13698C15.2847 9.13547 15.2832 9.13397 15.2817 9.13249L14.295 8.16909C14.1913 8.06782 14.1893 7.90163 14.2905 7.79788C14.292 7.79638 14.2935 7.79489 14.295 7.79341L14.5966 7.49903C14.7004 7.39776 14.7024 7.23157 14.6011 7.12782C14.5999 7.12655 14.5986 7.12528 14.5974 7.12403L13.5898 6.13298C13.4878 6.03267 13.3243 6.03247 13.2221 6.13255L10.0151 9.27239L9.98498 9.30188C9.94854 9.33756 9.90251 9.36185 9.85249 9.37179C9.80247 9.38172 9.75065 9.37688 9.70334 9.35784C9.69656 9.35511 9.69021 9.35261 9.6843 9.3503H9.68432ZM9.17514 12.6229C8.82562 12.9674 8.26422 12.9674 7.91469 12.6229C7.57018 12.2734 7.57018 11.712 7.91469 11.3624C8.26422 11.0179 8.82562 11.0179 9.17516 11.3624C9.51967 11.712 9.51967 12.2734 9.17516 12.6229H9.17514Z" fill="white"/>
<path id="Vector_3" opacity="0.7" d="M9.1599 8.82491C8.11123 8.41813 6.86541 8.62181 6.02389 9.45364C4.88787 10.5625 4.88787 12.3612 6.02389 13.4803C7.15943 14.5995 9.00258 14.5892 10.1492 13.4803C10.945 12.7126 11.2051 11.5558 10.8375 10.533C10.8258 10.5005 10.8097 10.4601 10.7893 10.4117C10.7687 10.3631 10.7632 10.3094 10.7736 10.2576C10.784 10.2058 10.8098 10.1584 10.8476 10.1215L10.9261 10.0449L12.0228 8.97397C12.1248 8.87442 12.2875 8.87439 12.3895 8.9739L13.3948 9.95476C13.4968 10.0542 13.6595 10.0542 13.7615 9.95472L14.7573 8.9828C14.8611 8.88153 14.8631 8.71534 14.7618 8.61159C14.7603 8.61008 14.7588 8.60858 14.7573 8.6071L13.7706 7.6437C13.6669 7.54243 13.6649 7.37624 13.7661 7.27249C13.7676 7.27099 13.7691 7.2695 13.7706 7.26802L14.0722 6.97364C14.176 6.87237 14.178 6.70618 14.0767 6.60243C14.0755 6.60116 14.0742 6.59989 14.0729 6.59864L13.0654 5.60759C12.9634 5.50728 12.7999 5.50708 12.6977 5.60716L9.49068 8.747L9.46057 8.77649C9.42413 8.81217 9.37809 8.83646 9.32808 8.8464C9.27806 8.85633 9.22623 8.85149 9.17893 8.83245C9.17215 8.82972 9.1658 8.82722 9.15988 8.82491H9.1599ZM8.65072 12.0975C8.30121 12.442 7.7398 12.442 7.39027 12.0975C7.04576 11.748 7.04576 11.1866 7.39027 10.837C7.7398 10.4925 8.30121 10.4925 8.65074 10.837C8.99525 11.1866 8.99525 11.748 8.65074 12.0975H8.65072Z" fill="white"/>
</g>
</svg>
