<svg width="54" height="54" viewBox="0 0 54 54" fill="none" xmlns="http://www.w3.org/2000/svg">
<g id="&#231;&#159;&#165;&#232;&#175;&#134;&#229;&#186;&#147;&#229;&#186;&#148;&#231;&#148;&#168;">
<path id="Vector" fill-rule="evenodd" clip-rule="evenodd" d="M41.0744 0.112305C48.8467 0.112305 53.8882 5.1538 53.8882 12.9261V41.0744C53.8882 48.8467 48.8467 53.8882 41.0744 53.8882H12.9261C5.1538 53.8882 0.112305 48.8467 0.112305 41.0744V12.9261C0.112305 5.1538 5.1538 0.112305 12.9261 0.112305H41.0744Z" fill="#0061FF"/>
<path id="Vector (Stroke)" fill-rule="evenodd" clip-rule="evenodd" d="M3.68354 3.68354C1.47594 5.89114 0.224066 9.06437 0.224066 12.9259V41.0741C0.224066 44.9356 1.47594 48.1089 3.68354 50.3165C5.89114 52.5241 9.06437 53.7759 12.9259 53.7759H41.0741C44.9356 53.7759 48.1089 52.5241 50.3165 50.3165C52.5241 48.1089 53.7759 44.9356 53.7759 41.0741V12.9259C53.7759 9.06437 52.5241 5.89114 50.3165 3.68354C48.1089 1.47594 44.9356 0.224066 41.0741 0.224066H12.9259C9.06437 0.224066 5.89114 1.47594 3.68354 3.68354ZM3.5251 3.5251C5.78133 1.26887 9.01501 0 12.9259 0H41.0741C44.985 0 48.2187 1.26887 50.4749 3.5251C52.7311 5.78133 54 9.01501 54 12.9259V41.0741C54 44.985 52.7311 48.2187 50.4749 50.4749C48.2187 52.7311 44.985 54 41.0741 54H12.9259C9.01501 54 5.78133 52.7311 3.5251 50.4749C1.26887 48.2187 0 44.985 0 41.0741V12.9259C0 9.01501 1.26887 5.78133 3.5251 3.5251Z" fill="#A4A4A4"/>
<path id="Vector_2" d="M36.9922 11.7002C37.3127 11.7002 37.6332 11.7149 37.9558 11.7464C38.442 11.7914 38.8939 12.0183 39.2227 12.3823C39.5516 12.7463 39.7337 13.2212 39.7332 13.7137V35.9047C39.7335 36.4164 39.5368 36.9082 39.1847 37.2764C38.8325 37.6446 38.3524 37.8604 37.8455 37.8784C35.9453 37.9498 34.3344 38.2059 33.017 38.649C31.2896 39.2306 28.6276 40.293 27.0001 41.8236L27.0001 17.0039C28.203 14.9189 30.8629 13.424 33.017 12.519C34.2753 11.9811 35.6276 11.7026 36.9942 11.7002H36.9922ZM41.6917 36.3708V16.122C41.9489 16.1217 42.2037 16.1727 42.4414 16.2719C42.6792 16.3711 42.8952 16.5166 43.0771 16.7001C43.259 16.8836 43.4032 17.1015 43.5016 17.3414C43.5999 17.5812 43.6504 17.8382 43.6501 18.0978V38.1891C43.6501 39.7597 42.6782 42.3002 39.7332 42.0441C37.6582 41.8656 37.525 41.7921 35.7747 41.8236C34.0639 41.853 31.6642 41.7921 29.5184 42.3002C30.7193 41.2882 32.478 40.5743 33.6393 40.3245C34.7986 40.0725 36.2492 39.9633 37.9558 39.9003C40.1203 39.8206 41.6917 38.1787 41.6917 36.3729V36.3708ZM17.008 11.7002C18.3629 11.7002 19.6866 11.9731 20.9832 12.517C23.1373 13.4219 25.7971 14.9189 27.0001 17.0039L27.0001 41.8236C25.3725 40.2909 22.7127 39.2306 20.9832 38.649C19.6658 38.2081 18.0569 37.9498 16.1547 37.8805C15.648 37.8615 15.1684 37.645 14.8167 37.2765C14.4651 36.908 14.2687 36.4163 14.2691 35.9048V13.7116C14.2691 12.6933 15.0392 11.8409 16.0465 11.7464C16.3661 11.7154 16.6869 11.7 17.008 11.7002ZM12.3085 36.3708C12.3085 38.0002 13.5011 39.8038 16.0839 39.8983C17.7906 39.9612 18.8583 40.1502 20.363 40.3224C21.8656 40.4924 23.3142 41.2882 24.5151 42.2981C22.3693 41.79 20.1507 41.8194 18.2255 41.8215C16.7104 41.8215 16.4461 42.042 14.2691 42.042C11.7008 42.042 10.3501 39.6967 10.3501 38.187V18.0957C10.3501 17.0039 11.2263 16.1199 12.3085 16.1199V36.3729V36.3708Z" fill="#F5FAFE"/>
<path id="Vector 892" d="M26.4741 32.2599L25.9482 31.208L25.5975 29.2794L25.2469 27.7015L25.5975 26.1235L27.5261 25.7729L28.9287 26.4742L28.2274 30.156L27.5261 31.208L28.052 32.2599L29.4546 33.8378L31.5585 33.3119L32.9611 31.5586L32.2598 29.63L30.5066 25.7729L29.104 23.143L28.4027 21.2145L26.8248 20.6885L24.5456 22.617L23.143 25.9482L21.565 29.2794L21.0391 31.7339L21.7404 33.4872L24.5456 33.3119L26.4741 32.2599Z" fill="#0061FF"/>
<path id="Vector_3" d="M33.7496 31.2691C33.7394 30.824 33.65 30.3843 33.4857 29.9709C33.3865 29.7153 33.2799 29.4628 33.166 29.2135L33.1562 29.1919L33.1101 29.0885C32.0654 26.7504 30.967 24.4369 29.8161 22.15L29.8142 22.1457C29.6929 21.9001 29.5675 21.6567 29.4381 21.4155C29.2374 21.0473 29.0331 20.7596 28.7858 20.5244C28.343 20.0959 27.7641 19.8394 27.1516 19.8004L26.8853 19.7998C26.2477 19.8311 25.6439 20.0981 25.1891 20.5498C24.9553 20.7775 24.759 21.0566 24.5632 21.4149C24.4528 21.6172 24.3626 21.7936 24.1901 22.1376L24.1699 22.1784L24.0907 22.3356C23.3431 23.8262 22.6177 25.328 21.9147 26.8404C21.4928 27.7446 21.0808 28.6535 20.6788 29.5668C20.4616 30.0656 20.3389 30.4387 20.2849 30.8347C20.173 31.6095 20.3323 32.3994 20.7353 33.0686C21.0811 33.644 21.5933 34.0987 22.2031 34.3718C22.6732 34.5809 23.1917 34.675 23.7023 34.644C24.3466 34.6094 24.9946 34.3804 25.5948 33.9986C26.144 33.6527 26.638 33.2047 27.2167 32.5661H26.784C27.3148 33.1534 27.7751 33.5791 28.2807 33.9176C28.8741 34.3186 29.5105 34.5704 30.1524 34.6323C30.9063 34.7112 31.6638 34.5214 32.2934 34.0958C32.848 33.7172 33.2755 33.1777 33.5195 32.5488C33.6784 32.1404 33.7565 31.7047 33.7496 31.266V31.2685V31.2691ZM32.2296 31.8855C32.0989 32.3444 31.7963 32.7341 31.3858 32.9721C31.0299 33.1763 30.6003 33.2505 30.1892 33.18C29.7007 33.102 29.2202 32.8471 28.7207 32.4331C28.4262 32.1911 28.1451 31.9077 27.8051 31.5247L27.818 31.9059C28.3783 31.1782 28.7815 30.5619 29.0944 29.9177C29.4436 29.1937 29.6406 28.518 29.6614 27.8466C29.6749 27.3423 29.5767 26.8565 29.3638 26.4395C29.0665 25.8583 28.5613 25.4126 27.9506 25.1926C27.3934 24.9903 26.7871 24.9708 26.2182 25.1369C25.6726 25.2943 25.1932 25.6277 24.8535 26.0861C24.5602 26.4926 24.3858 26.9739 24.3503 27.4753C24.2969 28.1114 24.4276 28.7729 24.7087 29.4734C25.0419 30.2877 25.526 31.0668 26.1845 31.9009L26.1906 31.5235C25.9495 31.81 25.6813 32.0829 25.3892 32.3403C24.8909 32.7734 24.4184 33.0488 23.9324 33.1571C23.5109 33.2567 23.0682 33.2041 22.6812 33.0086C22.4571 32.8911 22.2598 32.7279 22.1017 32.5293C21.9437 32.3307 21.8284 32.1011 21.7631 31.8551C21.6674 31.485 21.682 31.0946 21.8049 30.7326C21.8767 30.5161 21.9497 30.341 22.1203 29.9561L22.135 29.9239L22.2068 29.7605C23.2319 27.4666 24.3088 25.1964 25.4365 22.9519L25.4407 22.9433C25.6383 22.5485 25.7298 22.369 25.847 22.1531C26.0035 21.8666 26.1415 21.6809 26.3072 21.551C26.5046 21.3917 26.7509 21.3069 27.0037 21.3109C27.2676 21.3078 27.5253 21.4043 27.7248 21.577C27.9027 21.7286 28.0383 21.9285 28.2206 22.2775C28.482 22.7818 28.7097 23.2372 29.1269 24.0837L29.2018 24.2347L29.2098 24.2514C30.155 26.1732 31.0624 28.1137 31.9313 30.0718L31.9473 30.1083C32.1068 30.4734 32.1731 30.6404 32.2296 30.8459C32.3235 31.1857 32.3235 31.545 32.2296 31.8848V31.8855ZM27.2283 30.8112C27.1056 30.6627 27.0062 30.5247 26.8147 30.2426L26.7889 30.2054L26.7742 30.1838C26.5274 29.8185 26.3125 29.4324 26.1317 29.0297C25.9734 28.6646 25.8734 28.3342 25.8335 28.0149C25.7997 27.7197 25.8181 27.4648 25.8985 27.2526C25.974 27.0422 26.1182 26.8596 26.3017 26.7396C26.7607 26.4351 27.4155 26.4747 27.8193 26.8324C28.0126 27.0019 28.139 27.2612 28.1709 27.544C28.2114 27.906 28.1445 28.3002 27.9825 28.7432C27.7346 29.4128 27.3492 30.0551 26.7705 30.8218L27.0037 31.0018L27.2283 30.8112Z" fill="#0061FF" stroke="#0061FF" stroke-width="1.2"/>
<path id="Vector_4" d="M36.9922 11.7002C37.3127 11.7002 37.6332 11.7149 37.9558 11.7464C38.442 11.7914 38.8939 12.0183 39.2227 12.3823C39.5516 12.7463 39.7337 13.2212 39.7332 13.7137V35.9047C39.7335 36.4164 39.5368 36.9082 39.1847 37.2764C38.8325 37.6446 38.3524 37.8604 37.8455 37.8784C35.9453 37.9498 34.3344 38.2059 33.017 38.649C31.2896 39.2306 28.6276 40.293 27.0001 41.8236L27.0001 17.0039C28.203 14.9189 30.8629 13.424 33.017 12.519C34.2753 11.9811 35.6276 11.7026 36.9942 11.7002H36.9922ZM41.6917 36.3708V16.122C41.9489 16.1217 42.2037 16.1727 42.4414 16.2719C42.6792 16.3711 42.8952 16.5166 43.0771 16.7001C43.259 16.8836 43.4032 17.1015 43.5016 17.3414C43.5999 17.5812 43.6504 17.8382 43.6501 18.0978V38.1891C43.6501 39.7597 42.6782 42.3002 39.7332 42.0441C37.6582 41.8656 37.525 41.7921 35.7747 41.8236C34.0639 41.853 31.6642 41.7921 29.5184 42.3002C30.7193 41.2882 32.478 40.5743 33.6393 40.3245C34.7986 40.0725 36.2492 39.9633 37.9558 39.9003C40.1203 39.8206 41.6917 38.1787 41.6917 36.3729V36.3708ZM12.3085 36.3708C12.3085 38.0002 13.5011 39.8038 16.0839 39.8983C17.7906 39.9612 18.8583 40.1502 20.363 40.3224C21.8656 40.4924 23.3142 41.2882 24.5151 42.2981C22.3693 41.79 20.1507 41.8194 18.2255 41.8215C16.7104 41.8215 16.4461 42.042 14.2691 42.042C11.7008 42.042 10.3501 39.6967 10.3501 38.187V18.0957C10.3501 17.0039 11.2263 16.1199 12.3085 16.1199V36.3729V36.3708Z" fill="#CBE0FF" fill-opacity="0.58"/>
<path id="Vector_5" d="M41.6917 36.371V16.1222C41.9489 16.1219 42.2037 16.1729 42.4414 16.2721C42.6792 16.3713 42.8952 16.5168 43.0771 16.7003C43.259 16.8838 43.4032 17.1017 43.5016 17.3416C43.5999 17.5814 43.6504 17.8384 43.6501 18.098V38.1893C43.6501 39.7599 42.6782 42.3004 39.7332 42.0443C37.6582 41.8658 37.525 41.7923 35.7747 41.8238C34.0639 41.8532 31.6642 41.7923 29.5184 42.3004C30.7193 41.2884 32.478 40.5745 33.6393 40.3247C34.7986 40.0727 36.2492 39.9635 37.9558 39.9005C40.1203 39.8208 41.6917 38.1789 41.6917 36.3731V36.371ZM12.3085 36.371C12.3085 38.0004 13.5011 39.804 16.0839 39.8984C17.7906 39.9614 18.8583 40.1504 20.363 40.3226C21.8656 40.4926 23.3142 41.2884 24.5151 42.2983C22.3693 41.7902 20.1507 41.8196 18.2255 41.8217C16.7104 41.8217 16.4461 42.0422 14.2691 42.0422C11.7008 42.0422 10.3501 39.6969 10.3501 38.1872V18.0959C10.3501 17.0041 11.2263 16.1201 12.3085 16.1201V36.3731V36.371Z" fill="#6FA2FE"/>
</g>
</svg>
