<svg width="42" height="42" viewBox="0 0 42 42" fill="none" xmlns="http://www.w3.org/2000/svg">
<g id="Group 2085662950">
<g id="Group 2085662949">
<rect id="Rectangle 3" width="42" height="42" rx="8" fill="#EBF4FF"/>
</g>
<g id="Frame">
<path id="Vector" d="M21 12.3379C16.212 12.3379 12.3375 16.2124 12.3375 21.0004V26.8279C12.3375 28.3871 13.5975 29.6471 15.1568 29.6471H20.37C20.4488 29.6471 20.5118 29.6314 20.5748 29.6314C20.7165 29.6314 20.8583 29.6471 21 29.6471C25.788 29.6471 29.6625 25.7726 29.6625 20.9846C29.6625 16.1966 25.788 12.3379 21 12.3379ZM20.0235 21.1579C20.0235 21.7564 19.5353 22.2604 18.921 22.2604C18.3225 22.2604 17.8185 21.7721 17.8185 21.1579V18.9529C17.8185 18.3544 18.3068 17.8504 18.921 17.8504C19.5195 17.8504 20.0235 18.3386 20.0235 18.9529V21.1579ZM26.0558 21.1579C26.0558 21.7564 25.5675 22.2604 24.9533 22.2604C24.339 22.2604 23.8508 21.7721 23.8508 21.1579V18.9529C23.8508 18.3544 24.339 17.8504 24.9533 17.8504C25.5675 17.8504 26.0558 18.3386 26.0558 18.9529V21.1579Z" fill="#197DFF"/>
</g>
</g>
</svg>
