<svg width="12" height="12" viewBox="0 0 12 12" fill="none" xmlns="http://www.w3.org/2000/svg">
<g id="vuesax/linear/book-saved">
<g id="book-saved">
<path id="Vector" d="M11 2.33583V8.37083C11 8.85083 10.61 9.30082 10.13 9.36082L9.965 9.38084C8.875 9.52584 7.19499 10.0808 6.23499 10.6108C6.10499 10.6858 5.89 10.6858 5.755 10.6108L5.73499 10.6008C4.77499 10.0758 3.10001 9.52584 2.01501 9.38084L1.87 9.36082C1.39 9.30082 1 8.85083 1 8.37083V2.33082C1 1.73582 1.48499 1.28583 2.07999 1.33583C3.12999 1.42083 4.71999 1.95084 5.60999 2.50584L5.73499 2.58082C5.87999 2.67082 6.12001 2.67082 6.26501 2.58082L6.35001 2.52583C6.66501 2.33083 7.065 2.13583 7.5 1.96083V4.00084L8.5 3.33583L9.5 4.00084V1.39085C9.635 1.36585 9.76501 1.35083 9.88501 1.34083H9.91501C10.51 1.29083 11 1.73583 11 2.33583Z" stroke="#718096" stroke-linecap="round" stroke-linejoin="round"/>
<path id="Vector_2" d="M6 2.74414V10.2441" stroke="#718096" stroke-linecap="round" stroke-linejoin="round"/>
<path id="Vector_3" d="M9.5 1.39062V4.00061L8.5 3.3356L7.5 4.00061V1.9606C8.155 1.7006 8.885 1.49063 9.5 1.39062Z" stroke="#718096" stroke-linecap="round" stroke-linejoin="round"/>
</g>
</g>
</svg>
