<svg width="18" height="18" viewBox="0 0 18 18" fill="none" xmlns="http://www.w3.org/2000/svg">
<path d="M8.0625 16.8747H9.9525C10.6725 16.8747 11.1375 16.3647 11.0025 15.7422L10.695 14.3848H7.31999L7.0125 15.7422C6.8775 16.3272 7.3875 16.8747 8.0625 16.8747Z" stroke="currentColor" stroke-width="1.5" stroke-linecap="round" stroke-linejoin="round"/>
<path d="M10.6949 14.3776L11.9924 13.2226C12.7199 12.5776 12.7499 12.1276 12.1724 11.4001L9.88491 8.49762C9.40491 7.89012 8.61742 7.89012 8.13742 8.49762L5.84992 11.4001C5.27242 12.1276 5.27241 12.6001 6.02991 13.2226L7.32742 14.3776" stroke="currentColor" stroke-width="1.5" stroke-linecap="round" stroke-linejoin="round"/>
<path d="M9.00732 8.33984V10.2374" stroke="currentColor" stroke-width="1.5" stroke-linecap="round" stroke-linejoin="round"/>
<path d="M9.38989 3.75H8.63989C8.22739 3.75 7.88989 3.4125 7.88989 3V2.25C7.88989 1.8375 8.22739 1.5 8.63989 1.5H9.38989C9.80239 1.5 10.1399 1.8375 10.1399 2.25V3C10.1399 3.4125 9.80239 3.75 9.38989 3.75Z" stroke="currentColor" stroke-width="1.5" stroke-linecap="round" stroke-linejoin="round"/>
<path d="M2.45239 10.628H3.20239C3.61489 10.628 3.95239 10.2905 3.95239 9.87798V9.12798C3.95239 8.71548 3.61489 8.37793 3.20239 8.37793H2.45239C2.03989 8.37793 1.70239 8.71548 1.70239 9.12798V9.87798C1.70239 10.2905 2.03989 10.628 2.45239 10.628Z" stroke="currentColor" stroke-width="1.5" stroke-linecap="round" stroke-linejoin="round"/>
<path d="M15.5474 10.628H14.7974C14.3849 10.628 14.0474 10.2905 14.0474 9.87798V9.12798C14.0474 8.71548 14.3849 8.37793 14.7974 8.37793H15.5474C15.9599 8.37793 16.2974 8.71548 16.2974 9.12798V9.87798C16.2974 10.2905 15.9599 10.628 15.5474 10.628Z" stroke="currentColor" stroke-width="1.5" stroke-linecap="round" stroke-linejoin="round"/>
<path d="M7.89 2.66992C5.0325 3.00742 2.8125 5.42991 2.8125 8.37741" stroke="currentColor" stroke-width="1.5" stroke-linecap="round" stroke-linejoin="round"/>
<path d="M15.1874 8.37741C15.1874 5.43741 12.9824 3.02242 10.1399 2.66992" stroke="currentColor" stroke-width="1.5" stroke-linecap="round" stroke-linejoin="round"/>
</svg>
