<svg width="54" height="54" viewBox="0 0 54 54" fill="none" xmlns="http://www.w3.org/2000/svg">
<g clip-path="url(#clip0_6804_10557)">
<path d="M51.5955 50.291H2.35175C1.03658 50.291 -0.0263672 49.3033 -0.0263672 48.0813V12.0007C-0.0263672 10.7787 1.03658 9.79102 2.35175 9.79102H51.5955C52.9107 9.79102 53.9736 10.7787 53.9736 12.0007V48.0813C53.9736 49.2978 52.9047 50.291 51.5955 50.291Z" fill="#FFE9B4"/>
<path d="M26.9736 23.291H-0.0263672V8.24377C-0.0263672 6.61079 1.0366 5.29102 2.35175 5.29102H20.8301C21.8811 5.29102 22.8059 6.14107 23.1062 7.39372L26.9736 23.291Z" fill="#FFB02C"/>
<path d="M51.5955 50.291H2.35175C1.03658 50.291 -0.0263672 49.2129 -0.0263672 47.8788V16.7032C-0.0263672 15.3692 1.03658 14.291 2.35175 14.291H51.5955C52.9107 14.291 53.9736 15.3692 53.9736 16.7032V47.8788C53.9736 49.2067 52.9047 50.291 51.5955 50.291Z" fill="#FFCA28"/>
</g>
<defs>
<clipPath id="clip0_6804_10557">
<rect width="54" height="54" fill="white"/>
</clipPath>
</defs>
</svg>
