<svg width="18" height="18" viewBox="0 0 18 18" fill="none" xmlns="http://www.w3.org/2000/svg">
<path d="M16.5 12.5553V3.50276C16.5 2.60276 15.765 1.93526 14.8725 2.01026H14.8275C13.2525 2.14526 10.86 2.94776 9.525 3.78776L9.3975 3.87026C9.18 4.00526 8.82 4.00526 8.6025 3.87026L8.415 3.75776C7.08 2.92526 4.695 2.13026 3.12 2.00276C2.2275 1.92776 1.5 2.60276 1.5 3.49526V12.5553C1.5 13.2753 2.085 13.9503 2.805 14.0403L3.0225 14.0703C4.65 14.2878 7.1625 15.1128 8.6025 15.9003L8.6325 15.9153C8.835 16.0278 9.1575 16.0278 9.3525 15.9153C10.7925 15.1203 13.3125 14.2878 14.9475 14.0703L15.195 14.0403C15.915 13.9503 16.5 13.2753 16.5 12.5553Z" stroke="currentColor" stroke-width="1.5" stroke-linecap="round" stroke-linejoin="round"/>
<path d="M9 4.11719V15.3672" stroke="currentColor" stroke-width="1.5" stroke-linecap="round" stroke-linejoin="round"/>
<path d="M5.8125 6.36719H4.125" stroke="currentColor" stroke-width="1.5" stroke-linecap="round" stroke-linejoin="round"/>
<path d="M6.375 8.61719H4.125" stroke="currentColor" stroke-width="1.5" stroke-linecap="round" stroke-linejoin="round"/>
</svg>
