<svg width="22" height="22" viewBox="0 0 22 22" fill="none" xmlns="http://www.w3.org/2000/svg">
<g id="Frame 1312330142">
<g id="Frame">
<path id="Vector" d="M13.2627 17.1227C13.0884 17.2314 12.8892 17.2937 12.6841 17.3035C12.4789 17.3132 12.2747 17.2702 12.0909 17.1785L7.02208 14.6675H4.97008C4.30498 14.6675 3.76318 14.1266 3.76318 13.4606V8.69328C3.76318 8.02818 4.30408 7.48638 4.97008 7.48638H7.02388L12.0981 5.01948C12.2664 4.93758 12.4464 4.89708 12.6264 4.89708C12.8487 4.89708 13.0701 4.95918 13.2654 5.08158C13.62 5.30388 13.8315 5.68548 13.8315 6.10398V16.0976C13.8333 16.5179 13.62 16.9013 13.2627 17.1227ZM7.97158 9.52938C7.97158 9.09108 7.61608 8.73648 7.17868 8.73648C6.74128 8.73648 6.38578 9.09198 6.38578 9.52938V12.5624C6.38578 13.0007 6.74128 13.3553 7.17868 13.3553C7.61608 13.3553 7.97158 12.9998 7.97158 12.5624V9.52938ZM15.1977 14.3381C14.9295 14.3381 14.6685 14.474 14.5191 14.7197C14.2914 15.0941 14.4111 15.5819 14.7855 15.8096L16.4154 16.7996C16.7898 17.0273 17.2776 16.9076 17.5053 16.5341C17.733 16.1597 17.6133 15.6719 17.2389 15.4442L15.609 14.4542C15.4853 14.378 15.3429 14.3378 15.1977 14.3381ZM17.6799 10.3115H15.8232C15.3849 10.3115 15.0303 10.667 15.0303 11.1044C15.0303 11.5427 15.3858 11.8973 15.8232 11.8973H17.6799C18.1182 11.8973 18.4728 11.5418 18.4728 11.1044C18.4737 10.667 18.1182 10.3115 17.6799 10.3115ZM16.8267 5.23908C16.689 5.23908 16.5495 5.27508 16.4217 5.35069L14.7918 6.31998C14.4156 6.54408 14.2914 7.03098 14.5155 7.40718C14.7396 7.78338 15.2265 7.90668 15.6027 7.68348L17.2326 6.71418C17.6088 6.49008 17.733 6.00318 17.5089 5.62698C17.4386 5.50873 17.3387 5.41079 17.2191 5.34279C17.0995 5.27478 16.9643 5.23904 16.8267 5.23908Z" fill="#165DFF"/>
<path id="Vector_2" d="M13.8333 8.94888V16.0976C13.8333 16.5179 13.62 16.9013 13.2627 17.1227C13.0884 17.2314 12.8892 17.2937 12.6841 17.3035C12.4789 17.3132 12.2747 17.2702 12.0909 17.1785L7.02208 14.6675H4.97008C4.30498 14.6675 3.76318 14.1266 3.76318 13.4606V8.69328C3.76318 8.02818 4.30408 7.48638 4.97008 7.48638H7.02388L10.1433 5.96988C11.6445 6.58638 12.9243 7.62948 13.8333 8.94888ZM7.97158 9.52938C7.97158 9.09108 7.61608 8.73648 7.17868 8.73648C6.74128 8.73648 6.38578 9.09198 6.38578 9.52938V12.5624C6.38578 13.0007 6.74128 13.3553 7.17868 13.3553C7.61608 13.3553 7.97158 12.9998 7.97158 12.5624V9.52938ZM14.979 15.9257L14.7855 15.8087C14.4111 15.581 14.2923 15.0932 14.5191 14.7188C14.5898 14.6022 14.6894 14.5058 14.8083 14.4389C14.9272 14.3721 15.0613 14.337 15.1977 14.3372C15.2202 14.3372 15.2418 14.3399 15.2643 14.3417C15.2209 14.8777 15.1254 15.4082 14.979 15.9257Z" fill="#77A0FF" fill-opacity="0.55"/>
<path id="Vector_3" d="M13.0224 16.607C13.0224 16.8221 13.0116 17.0354 12.9954 17.2469C12.7002 17.3423 12.3771 17.3216 12.0909 17.1794L7.02208 14.6675H4.97008C4.30498 14.6675 3.76318 14.1266 3.76318 13.4606V8.69327C3.76318 8.57267 3.78118 8.45657 3.81448 8.34677C4.10968 8.31527 4.40938 8.29727 4.71268 8.29727C9.30268 8.29727 13.0224 12.0179 13.0224 16.607ZM6.38578 12.5624C6.38578 13.0007 6.74128 13.3553 7.17868 13.3553C7.61608 13.3553 7.97158 12.9998 7.97158 12.5624V9.52937C7.97158 9.09107 7.61608 8.73647 7.17868 8.73647C6.74128 8.73647 6.38578 9.09197 6.38578 9.52937V12.5624Z" fill="#89ADFF"/>
<path id="Vector_4" d="M6.38578 12.1394V12.5624C6.38578 13.0007 6.74128 13.3553 7.17868 13.3553C7.29871 13.3553 7.41718 13.3281 7.52509 13.2755C7.633 13.223 7.72752 13.1465 7.80148 13.052C8.86528 13.9016 9.71668 15.005 10.2612 16.2731L7.02208 14.6675H4.97008C4.30498 14.6675 3.76318 14.1266 3.76318 13.4606V11.3177C4.67709 11.4434 5.56352 11.7211 6.38578 12.1394Z" fill="#BDD1FF"/>
</g>
</g>
</svg>
