<svg width="18" height="18" viewBox="0 0 18 18" fill="none" xmlns="http://www.w3.org/2000/svg">
<g id="vuesax/linear/folder-open">
<g id="folder-open">
<path id="Vector" d="M16.2526 10.725L15.9526 14.475C15.8401 15.6225 15.7501 16.5 13.7176 16.5H4.28257C2.25007 16.5 2.16007 15.6225 2.04757 14.475L1.74757 10.725C1.68757 10.1025 1.88257 9.525 2.23507 9.0825C2.24257 9.075 2.24257 9.075 2.25007 9.0675C2.66257 8.565 3.28507 8.25 3.98257 8.25H14.0176C14.7151 8.25 15.3301 8.565 15.7351 9.0525C15.7426 9.06 15.7501 9.0675 15.7501 9.075C16.1176 9.5175 16.3201 10.095 16.2526 10.725Z" stroke="currentColor" stroke-width="1.5" stroke-miterlimit="10"/>
<path id="Vector_2" d="M2.625 8.57246V4.70996C2.625 2.15996 3.2625 1.52246 5.8125 1.52246H6.765C7.7175 1.52246 7.935 1.80746 8.295 2.28746L9.2475 3.56246C9.4875 3.87746 9.63 4.07246 10.2675 4.07246H12.18C14.73 4.07246 15.3675 4.70996 15.3675 7.25996V8.60246" stroke="currentColor" stroke-width="1.5" stroke-miterlimit="10" stroke-linecap="round" stroke-linejoin="round"/>
<path id="Vector_3" d="M7.07275 12.75H10.9278" stroke="currentColor" stroke-width="1.5" stroke-miterlimit="10" stroke-linecap="round" stroke-linejoin="round"/>
</g>
</g>
</svg>
