<svg width="40" height="38" viewBox="0 0 40 38" fill="none" xmlns="http://www.w3.org/2000/svg">
<g id="&#231;&#187;&#132; 5">
<path id="Rectangle" d="M4.00011 28.8869C3.99279 29.8369 4.34985 30.7509 4.99277 31.4281C5.63568 32.1053 6.5118 32.49 7.42842 32.4978H13.8525C14.3483 32.4968 14.8379 32.3838 15.2871 32.1664C15.7363 31.9491 16.1343 31.6327 16.4534 31.2395L18.12 29.1918C18.439 28.7985 18.8371 28.4821 19.2863 28.2648C19.7355 28.0475 20.2251 27.9344 20.7208 27.9335H33.1374C34.054 27.9257 34.9301 27.5409 35.5731 26.8638C36.216 26.1866 36.573 25.2726 36.5657 24.3226V3.61086C36.573 2.6609 36.216 1.74682 35.5731 1.06967C34.9301 0.392522 34.054 0.00775651 33.1374 0H7.42842C6.5118 0.00775651 5.63568 0.392522 4.99277 1.06967C4.34985 1.74682 3.99279 2.6609 4.00011 3.61086V28.8869Z" fill="#2F51FF"/>
<path id="Rectangle_2" d="M0.000134173 9.12968C-0.00918428 7.86339 0.467216 6.64513 1.32455 5.74285C2.18188 4.84057 3.34993 4.32817 4.57177 4.31836L12.1667 4.31836C12.7623 4.31928 13.3519 4.44179 13.9018 4.67888C14.4517 4.91598 14.9512 5.26302 15.3717 5.70018L17.275 7.66927C17.6955 8.10643 18.195 8.45347 18.7449 8.69056C19.2948 8.92766 19.8844 9.05016 20.48 9.05109H35.4282C36.6496 9.0609 37.8173 9.57294 38.6746 10.4747C39.5318 11.3764 40.0085 12.594 39.9999 13.8598V33.188C40.0046 33.8151 39.8901 34.437 39.6629 35.0182C39.4357 35.5994 39.1003 36.1285 38.6757 36.5754C38.2512 37.0222 37.7459 37.3781 37.1887 37.6225C36.6315 37.867 36.0333 37.9953 35.4282 38.0002H4.57177C3.34993 37.9904 2.18188 37.478 1.32455 36.5757C0.467216 35.6734 -0.00918428 34.4551 0.000134173 33.1889V9.12968Z" fill="url(#paint0_linear_4407_32088)"/>
<path id="Path 5" d="M15.1599 24.0927C14.9424 24.0929 14.7296 24.0269 14.5479 23.903C14.3661 23.779 14.2235 23.6025 14.1376 23.3954C14.0518 23.1883 14.0264 22.9596 14.0647 22.7377C14.1031 22.5157 14.2034 22.3103 14.3532 22.1469L19.409 16.6248C19.5158 16.5081 19.6444 16.4152 19.7869 16.3517C19.9295 16.2881 20.083 16.2554 20.2382 16.2554C20.3934 16.2554 20.5469 16.2881 20.6895 16.3517C20.832 16.4152 20.9606 16.5081 21.0674 16.6248L26.1232 22.1461C26.273 22.3095 26.3733 22.5149 26.4116 22.7368C26.45 22.9587 26.4246 23.1874 26.3387 23.3945C26.2529 23.6017 26.1102 23.7782 25.9285 23.9021C25.7468 24.026 25.534 24.092 25.3165 24.0918H23.2998C23.1482 24.0918 23.0028 24.1543 22.8956 24.2654C22.7884 24.3765 22.7282 24.5272 22.7282 24.6843V26.9712C22.7283 27.1268 22.6988 27.2808 22.6415 27.4246C22.5841 27.5683 22.4999 27.699 22.3938 27.809C22.2877 27.919 22.1618 28.0063 22.0231 28.0659C21.8844 28.1255 21.7358 28.1561 21.5857 28.1561H18.8907C18.5877 28.1561 18.2971 28.0314 18.0828 27.8093C17.8686 27.5873 17.7482 27.2861 17.7482 26.9721V24.6843C17.7482 24.5272 17.688 24.3765 17.5808 24.2654C17.4736 24.1543 17.3282 24.0918 17.1765 24.0918L15.1599 24.0927Z" fill="white" fill-opacity="0.9"/>
</g>
<defs>
<linearGradient id="paint0_linear_4407_32088" x1="-3.2" y1="-13.3646" x2="15.6835" y2="48.0185" gradientUnits="userSpaceOnUse">
<stop stop-color="#8FC6FE"/>
<stop offset="1" stop-color="#2F51FF"/>
</linearGradient>
</defs>
</svg>
