<svg width="54" height="54" viewBox="0 0 54 54" fill="none" xmlns="http://www.w3.org/2000/svg">
<g id="&#231;&#186;&#191;&#228;&#184;&#138;&#230;&#128;&#187;&#229;&#134;&#133;&#229;&#174;&#185;">
<path id="Ellipse 928" d="M54 27C54 41.9117 41.9117 54 27 54C12.0883 54 0 41.9117 0 27C0 12.0883 12.0883 0 27 0C41.9117 0 54 12.0883 54 27Z" fill="#F3F5FF"/>
<g id="vuesax/bold/profile-2user">
<g id="vuesax/bold/profile-2user_2">
<g id="profile-2user">
<path id="Vector" d="M23.5002 15.3333C20.4435 15.3333 17.9585 17.8183 17.9585 20.875C17.9585 23.8733 20.3035 26.3 23.3602 26.405C23.4535 26.3933 23.5468 26.3933 23.6168 26.405C23.6402 26.405 23.6518 26.405 23.6752 26.405C23.6868 26.405 23.6868 26.405 23.6985 26.405C26.6852 26.3 29.0302 23.8733 29.0418 20.875C29.0418 17.8183 26.5568 15.3333 23.5002 15.3333Z" fill="#7494F4"/>
<path id="Vector_2" d="M29.4266 29.5083C26.1716 27.3383 20.8633 27.3383 17.585 29.5083C16.1033 30.5 15.2866 31.8417 15.2866 33.2767C15.2866 34.7117 16.1033 36.0417 17.5733 37.0217C19.2066 38.1183 21.3533 38.6667 23.5 38.6667C25.6466 38.6667 27.7933 38.1183 29.4266 37.0217C30.8966 36.03 31.7133 34.7 31.7133 33.2533C31.7016 31.8183 30.8966 30.4883 29.4266 29.5083Z" fill="#7494F4"/>
<path id="Vector_3" d="M36.3214 21.5633C36.5081 23.8267 34.8981 25.81 32.6698 26.0783C32.6581 26.0783 32.6581 26.0783 32.6464 26.0783H32.6114C32.5414 26.0783 32.4714 26.0783 32.4131 26.1017C31.2814 26.16 30.2431 25.7983 29.4614 25.1333C30.6631 24.06 31.3514 22.45 31.2114 20.7C31.1298 19.755 30.8031 18.8917 30.3131 18.1567C30.7564 17.935 31.2698 17.795 31.7948 17.7483C34.0814 17.55 36.1231 19.2533 36.3214 21.5633Z" fill="#7494F4"/>
<path id="Vector_4" d="M38.6551 32.355C38.5618 33.4867 37.8384 34.4667 36.6251 35.1317C35.4584 35.7733 33.9884 36.0767 32.5301 36.0417C33.3701 35.2833 33.8601 34.3383 33.9534 33.335C34.0701 31.8883 33.3818 30.5 32.0051 29.3917C31.2234 28.7733 30.3134 28.2833 29.3218 27.9217C31.9001 27.175 35.1434 27.6767 37.1384 29.2867C38.2118 30.15 38.7601 31.235 38.6551 32.355Z" fill="#7494F4"/>
</g>
</g>
</g>
</g>
</svg>
