<svg width="54" height="54" viewBox="0 0 54 54" fill="none" xmlns="http://www.w3.org/2000/svg">
<g id="&#231;&#186;&#191;&#228;&#184;&#138;&#230;&#128;&#187;&#229;&#134;&#133;&#229;&#174;&#185;">
<path id="Ellipse 928" d="M54 27C54 41.9117 41.9117 54 27 54C12.0883 54 0 41.9117 0 27C0 12.0883 12.0883 0 27 0C41.9117 0 54 12.0883 54 27Z" fill="#FFF4EE"/>
<g id="Frame">
<path id="Vector" d="M35.6172 18.9377C35.434 18.7629 35.2507 18.4133 34.8843 18.2384C34.701 18.0636 34.5178 17.714 34.3346 17.5391C34.2487 17.3786 34.1173 17.2443 33.9553 17.1515C33.7933 17.0588 33.6073 17.0114 33.4184 17.0147H21.3249C21.0075 16.969 20.6833 17.0308 20.4087 17.1895C20.2255 17.3643 20.0422 17.3643 19.859 17.5391L19.3093 18.0636L18.3931 18.9377C18.2099 19.2874 17.8434 19.637 17.6602 19.9867H36.5334C36.1669 19.637 35.9837 19.2874 35.6172 18.9377ZM35.8004 30.651H18.2099C17.9123 30.6292 17.613 30.6643 17.3298 30.7544C17.0466 30.8445 16.7852 30.9877 16.5608 31.1755C16.2213 31.5713 16.0281 32.0629 16.0111 32.5741V35.8958C15.9758 36.1965 16.0251 36.5008 16.1539 36.7773C16.2827 37.0539 16.4864 37.2927 16.744 37.4692C17.1424 37.8195 17.6683 38.0077 18.2099 37.9937H35.6172C35.9148 38.0156 36.2141 37.9804 36.4973 37.8903C36.7805 37.8003 37.0419 37.6571 37.2663 37.4692C37.6334 37.0891 37.8306 36.5873 37.816 36.0706V32.5741C37.8306 32.0574 37.6334 31.5556 37.2663 31.1755C37.0831 30.8259 36.5334 30.651 35.8004 30.651ZM28.8375 34.8468C28.6543 35.0217 28.6543 35.0217 28.471 35.0217H25.7225C25.623 35.0335 25.522 35.024 25.4269 34.9937C25.3318 34.9635 25.245 34.9133 25.1728 34.8468C25.1728 34.672 24.9896 34.4972 24.9896 34.3224C24.9896 34.1475 24.9896 33.9727 25.1728 33.9727C25.3561 33.7979 25.3561 33.7979 25.7225 33.7979H28.2878C28.471 33.7979 28.6543 33.7979 28.6543 33.9727C28.8375 34.1475 28.8375 34.1475 28.8375 34.3224C29.0207 34.4972 28.8375 34.672 28.8375 34.8468ZM37.4495 22.4343C37.2252 22.2464 36.9637 22.1032 36.6805 22.0131C36.3973 21.9231 36.0981 21.8879 35.8004 21.9098H18.2099C17.9123 21.8879 17.613 21.9231 17.3298 22.0131C17.0466 22.1032 16.7852 22.2464 16.5608 22.4343C16.3817 22.5881 16.2398 22.7772 16.1449 22.9885C16.05 23.1998 16.0043 23.4282 16.0111 23.658V27.1545C15.9965 27.6712 16.1937 28.173 16.5608 28.5531C16.7852 28.741 17.0466 28.8842 17.3298 28.9742C17.613 29.0643 17.9123 29.0995 18.2099 29.0776H35.8004C36.0981 29.0995 36.3973 29.0643 36.6805 28.9742C36.9637 28.8842 37.2252 28.741 37.4495 28.5531C37.8166 28.173 38.0138 27.6712 37.9992 27.1545V23.658C38.006 23.4282 37.9603 23.1998 37.8654 22.9885C37.7705 22.7772 37.6286 22.5881 37.4495 22.4343ZM28.2878 26.1056H25.7225C25.5393 26.1056 25.3561 26.1056 25.3561 25.9308C25.1921 25.7861 25.0664 25.6063 24.9896 25.4063C24.9896 25.2315 24.9896 25.0566 25.1728 25.0566C25.3561 24.8818 25.3561 24.8818 25.7225 24.8818H28.2878C28.471 24.8818 28.6543 24.8818 28.6543 25.0566C28.7494 25.0628 28.8389 25.1016 28.9063 25.1659C28.9736 25.2302 29.0143 25.3156 29.0207 25.4063C28.8375 25.9308 28.6543 26.1056 28.2878 26.1056Z" fill="#FCA274"/>
</g>
</g>
</svg>
